<?xml version="1.0" encoding="utf-8" standalone="no"?>
<!DOCTYPE svg PUBLIC "-//W3C//DTD SVG 1.1//EN"
  "http://www.w3.org/Graphics/SVG/1.1/DTD/svg11.dtd">
<!-- Created with matplotlib (http://matplotlib.org/) -->
<svg height="280pt" version="1.1" viewBox="0 0 712 280" width="712pt" xmlns="http://www.w3.org/2000/svg" xmlns:xlink="http://www.w3.org/1999/xlink">
 <defs>
  <style type="text/css">
*{stroke-linecap:butt;stroke-linejoin:round;}
  </style>
 </defs>
 <g id="figure_1">
  <g id="patch_1">
   <path d="
M0 280.923
L712.929 280.923
L712.929 0
L0 0
z
" style="fill:#ffffff;"/>
  </g>
  <g id="axes_1">
   <g id="patch_2">
    <path d="
M58.7753 237.625
L343.175 237.625
L343.175 13.9747
L58.7753 13.9747
z
" style="fill:#ffffff;"/>
   </g>
   <g id="line2d_1">
    <path clip-path="url(#p20d03b69dc)" d="
M58.7753 228.679
L63.5153 152.638
L68.2553 74.3602
L72.9953 148.165
L77.7353 101.198
L82.4753 143.692
L87.2153 96.7252
L91.9553 94.4887
L96.6953 87.7792
L101.435 96.7252
L106.175 47.5222
L110.915 121.327
L115.655 94.4887
L120.395 107.908
L125.135 172.766
L129.875 177.239
L134.615 201.841
L139.355 132.509
L144.095 74.3602
L148.835 98.9617
L153.575 58.7047
L158.315 143.692
L163.055 65.4142
L167.795 81.0697
L172.535 87.7792
L177.275 47.5222
L182.015 34.1032
L186.755 34.1032
L191.495 65.4142
L196.235 56.4682
L200.975 54.2317
L205.715 16.2112
L210.455 22.9207
L215.195 31.8667
L219.935 49.7587
L224.675 27.3937
L229.415 34.1032
L234.155 43.0492
L238.895 92.2522
L243.635 29.6302
L248.375 58.7047
L253.115 36.3397
L257.855 47.5222
L262.595 67.6507
L267.335 51.9952
L272.075 22.9207
L276.815 34.1032
L281.555 29.6302
L286.295 235.388
L291.035 233.152" style="fill:none;opacity:0.5;stroke:#ff0000;stroke-linecap:square;"/>
   </g>
   <g id="line2d_2">
    <path clip-path="url(#p20d03b69dc)" d="
M58.7753 195.131
L63.5153 224.206
L68.2553 237.625
L72.9953 161.584
L77.7353 49.7587
L82.4753 51.9952
L87.2153 65.4142
L91.9553 90.0157
L96.6953 87.7792
L101.435 148.165
L106.175 85.5427
L110.915 40.8127
L115.655 87.7792
L120.395 72.1237
L125.135 74.3602
L129.875 90.0157
L134.615 74.3602
L139.355 60.9412
L144.095 139.219
L148.835 107.908
L153.575 47.5222
L158.315 139.219
L163.055 85.5427
L167.795 60.9412
L172.535 58.7047
L177.275 65.4142
L182.015 49.7587
L186.755 90.0157
L191.495 112.381
L196.235 65.4142
L200.975 56.4682
L205.715 40.8127
L210.455 45.2857
L215.195 45.2857
L219.935 38.5762
L224.675 36.3397
L229.415 36.3397
L234.155 25.1572
L238.895 29.6302
L243.635 54.2317
L248.375 43.0492
L253.115 56.4682" style="fill:none;opacity:0.5;stroke:#ff0000;stroke-linecap:square;"/>
   </g>
   <g id="line2d_3">
    <path clip-path="url(#p20d03b69dc)" d="
M58.7753 228.679
L63.5153 235.388
L68.2553 237.625
L72.9953 190.658
L77.7353 190.658
L82.4753 85.5427
L87.2153 98.9617
L91.9553 83.3062
L96.6953 136.982
L101.435 67.6507
L106.175 92.2522
L110.915 56.4682
L115.655 101.198
L120.395 90.0157
L125.135 136.982
L129.875 65.4142
L134.615 94.4887
L139.355 134.746
L144.095 76.5967
L148.835 121.327
L153.575 134.746
L158.315 105.671
L163.055 43.0492
L167.795 90.0157
L172.535 92.2522
L177.275 47.5222
L182.015 49.7587
L186.755 27.3937
L191.495 83.3062
L196.235 67.6507
L200.975 72.1237
L205.715 56.4682
L210.455 34.1032
L215.195 40.8127
L219.935 40.8127
L224.675 20.6842
L229.415 38.5762
L234.155 43.0492
L238.895 38.5762
L243.635 51.9952
L248.375 51.9952
L253.115 40.8127
L257.855 43.0492
L262.595 29.6302
L267.335 58.7047
L272.075 40.8127
L276.815 74.3602
L281.555 74.3602
L286.295 34.1032
L291.035 98.9617
L295.775 31.8667
L300.515 45.2857
L305.255 40.8127
L309.995 159.347
L314.735 60.9412
L319.475 27.3937
L324.215 22.9207
L328.955 65.4142
L333.695 51.9952" style="fill:none;opacity:0.5;stroke:#ff0000;stroke-linecap:square;"/>
   </g>
   <g id="line2d_4"/>
   <g id="line2d_5"/>
   <g id="line2d_6"/>
   <g id="line2d_7"/>
   <g id="line2d_8"/>
   <g id="line2d_9"/>
   <g id="line2d_10"/>
   <g id="line2d_11"/>
   <g id="line2d_12"/>
   <g id="line2d_13">
    <path clip-path="url(#p20d03b69dc)" d="
M58.7753 233.083
L333.695 233.083" style="fill:none;stroke:#ff0000;stroke-dasharray:6.000000,6.000000;stroke-dashoffset:0.0;stroke-width:2;"/>
   </g>
   <g id="line2d_14">
    <path clip-path="url(#p20d03b69dc)" d="
M58.7753 200.421
L60.6081 196.951
L62.4409 192.778
L64.2737 187.805
L66.1065 181.96
L67.9393 175.215
L69.7721 167.613
L73.4377 150.447
L77.1033 132.539
L78.9361 124.19
L80.7689 116.692
L82.6017 110.295
L84.4345 105.136
L86.2673 101.237
L88.1001 98.4991
L89.9329 96.7288
L91.7657 95.6622
L93.5985 95.0049
L97.2641 93.8481
L99.0969 92.9887
L100.93 91.8751
L104.595 89.3311
L106.428 88.3039
L108.261 87.7395
L110.094 87.8169
L111.927 88.6379
L113.759 90.213
L115.592 92.4652
L117.425 95.2452
L122.923 104.664
L124.756 107.438
L126.589 109.725
L128.422 111.413
L130.255 112.442
L132.087 112.813
L133.92 112.572
L135.753 111.808
L137.586 110.636
L139.419 109.19
L144.917 104.435
L148.583 101.647
L152.248 99.0144
L154.081 97.5151
L155.914 95.7475
L157.747 93.6373
L159.579 91.1639
L161.412 88.3637
L165.078 82.1184
L170.576 72.4302
L174.242 66.518
L176.075 63.9857
L177.907 61.9118
L179.74 60.4261
L181.573 59.6102
L183.406 59.4608
L185.239 59.8696
L190.737 62.088
L192.57 62.2383
L194.403 61.7428
L196.235 60.5337
L198.068 58.6537
L199.901 56.2388
L207.232 45.3362
L209.065 43.1962
L210.898 41.4657
L212.731 40.1246
L214.563 39.1122
L216.396 38.3526
L218.229 37.7806
L220.062 37.3602
L221.895 37.0917
L223.727 37.0054
L225.56 37.1464
L227.393 37.5537
L229.226 38.2423
L231.059 39.1916
L234.724 41.6146
L238.39 44.1107
L240.223 45.1611
L242.055 46.0038
L243.888 46.6205
L245.721 47.022
L247.554 47.241
L251.219 47.3202
L258.551 47.244
L262.216 47.4049
L264.049 47.5857
L265.882 47.927
L267.715 48.5721
L269.547 49.7214
L271.38 51.6066
L273.213 54.4486
L275.046 58.404
L276.879 63.5118
L278.711 69.6519
L284.21 90.5595
L286.043 96.5358
L287.875 101.046
L289.708 103.642
L291.541 104.071
L293.374 102.345
L295.207 98.7836
L297.039 94.0148
L298.872 88.8793
L300.705 84.2368
L302.538 80.7076
L304.371 78.466
L306.203 77.1998
L308.036 76.265
L309.869 74.9547
L311.702 72.7557
L313.535 69.4974
L315.367 65.3669
L319.033 56.3881
L320.866 52.5922
L322.699 49.7549
L324.531 47.9931
L326.364 47.2314
L328.197 47.2678
L330.03 47.8484
L333.695 49.714
L333.695 49.714" style="fill:none;stroke:#ff0000;stroke-linecap:square;stroke-width:2;"/>
   </g>
   <g id="line2d_15">
    <path clip-path="url(#p20d03b69dc)" d="
M58.7753 190.658
L63.5153 132.509
L68.2553 134.746
L72.9953 107.908
L77.7353 172.766
L82.4753 121.327
L87.2153 72.1237
L91.9553 78.8332
L96.6953 69.8872
L101.435 78.8332
L106.175 85.5427
L110.915 110.144
L115.655 92.2522
L120.395 112.381
L125.135 81.0697
L129.875 94.4887
L134.615 101.198
L139.355 112.381
L144.095 105.671
L148.835 87.7792
L153.575 51.9952
L158.315 74.3602
L163.055 54.2317
L167.795 51.9952
L172.535 38.5762
L177.275 34.1032
L182.015 36.3397
L186.755 34.1032
L191.495 36.3397
L196.235 51.9952
L200.975 18.4477
L205.715 20.6842
L210.455 34.1032
L215.195 20.6842
L219.935 22.9207
L224.675 16.2112
L229.415 20.6842
L234.155 25.1572
L238.895 43.0492
L243.635 22.9207
L248.375 16.2112
L253.115 29.6302
L257.855 25.1572
L262.595 38.5762
L267.335 27.3937
L272.075 20.6842
L276.815 58.7047
L281.555 20.6842
L286.295 228.679
L291.035 237.625" style="fill:none;opacity:0.5;stroke:#008000;stroke-linecap:square;"/>
   </g>
   <g id="line2d_16">
    <path clip-path="url(#p20d03b69dc)" d="
M58.7753 125.8
L63.5153 213.023
L68.2553 210.787
L72.9953 134.746
L77.7353 38.5762
L82.4753 25.1572
L87.2153 110.144
L91.9553 63.1777
L96.6953 43.0492
L101.435 183.949
L106.175 47.5222
L110.915 63.1777
L115.655 49.7587
L120.395 72.1237
L125.135 83.3062
L129.875 49.7587
L134.615 40.8127
L139.355 25.1572
L144.095 43.0492
L148.835 27.3937
L153.575 38.5762
L158.315 78.8332
L163.055 40.8127
L167.795 38.5762
L172.535 34.1032
L177.275 85.5427
L182.015 47.5222
L186.755 29.6302
L191.495 132.509
L196.235 125.8
L200.975 27.3937
L205.715 18.4477
L210.455 18.4477
L215.195 22.9207
L219.935 20.6842
L224.675 18.4477
L229.415 18.4477
L234.155 45.2857
L238.895 29.6302
L243.635 51.9952
L248.375 25.1572
L253.115 54.2317" style="fill:none;opacity:0.5;stroke:#008000;stroke-linecap:square;"/>
   </g>
   <g id="line2d_17">
    <path clip-path="url(#p20d03b69dc)" d="
M58.7753 154.874
L63.5153 208.55
L68.2553 237.625
L72.9953 175.003
L77.7353 45.2857
L82.4753 43.0492
L87.2153 34.1032
L91.9553 83.3062
L96.6953 65.4142
L101.435 49.7587
L106.175 43.0492
L110.915 45.2857
L115.655 72.1237
L120.395 69.8872
L125.135 65.4142
L129.875 67.6507
L134.615 54.2317
L139.355 58.7047
L144.095 76.5967
L148.835 25.1572
L153.575 81.0697
L158.315 63.1777
L163.055 43.0492
L167.795 83.3062
L172.535 69.8872
L177.275 34.1032
L182.015 27.3937
L186.755 31.8667
L191.495 45.2857
L196.235 114.617
L200.975 49.7587
L205.715 18.4477
L210.455 25.1572
L215.195 18.4477
L219.935 29.6302
L224.675 13.9747
L229.415 20.6842
L234.155 27.3937
L238.895 54.2317
L243.635 56.4682
L248.375 29.6302
L253.115 20.6842
L257.855 22.9207
L262.595 27.3937
L267.335 25.1572
L272.075 31.8667
L276.815 103.435
L281.555 36.3397
L286.295 38.5762
L291.035 47.5222
L295.775 27.3937
L300.515 18.4477
L305.255 36.3397
L309.995 58.7047
L314.735 34.1032
L319.475 22.9207
L324.215 22.9207
L328.955 31.8667
L333.695 29.6302" style="fill:none;opacity:0.5;stroke:#008000;stroke-linecap:square;"/>
   </g>
   <g id="line2d_18"/>
   <g id="line2d_19"/>
   <g id="line2d_20"/>
   <g id="line2d_21"/>
   <g id="line2d_22"/>
   <g id="line2d_23"/>
   <g id="line2d_24"/>
   <g id="line2d_25"/>
   <g id="line2d_26"/>
   <g id="line2d_27">
    <path clip-path="url(#p20d03b69dc)" d="
M58.7753 234.462
L333.695 234.462" style="fill:none;stroke:#008000;stroke-dasharray:6.000000,6.000000;stroke-dashoffset:0.0;stroke-width:2;"/>
   </g>
   <g id="line2d_28">
    <path clip-path="url(#p20d03b69dc)" d="
M58.7753 169.862
L60.6081 169.218
L62.4409 167.659
L64.2737 164.937
L66.1065 160.835
L67.9393 155.223
L69.7721 148.111
L71.6049 139.687
L75.2705 120.507
L77.1033 110.824
L78.9361 101.808
L80.7689 93.8892
L82.6017 87.3368
L84.4345 82.2494
L86.2673 78.5755
L88.1001 76.1549
L89.9329 74.765
L91.7657 74.1588
L93.5985 74.0912
L97.2641 74.6879
L99.0969 74.9941
L100.93 75.149
L102.763 75.1148
L106.428 74.644
L108.261 74.3905
L110.094 74.2515
L111.927 74.2784
L115.592 74.7535
L119.258 75.2236
L121.091 75.2012
L122.923 74.9172
L124.756 74.3598
L126.589 73.5613
L130.255 71.5107
L135.753 68.2651
L148.583 61.1463
L150.415 60.3676
L154.081 59.1503
L157.747 58.0304
L159.579 57.3527
L161.412 56.5508
L165.078 54.5955
L170.576 51.1702
L174.242 48.9619
L176.075 48.0741
L177.907 47.4812
L179.74 47.3155
L181.573 47.6885
L183.406 48.6478
L185.239 50.1364
L188.904 53.8377
L190.737 55.3585
L192.57 56.142
L194.403 55.8812
L196.235 54.4247
L198.068 51.8142
L199.901 48.2752
L205.399 35.7974
L207.232 32.1871
L209.065 29.1984
L210.898 26.8628
L212.731 25.1257
L214.563 23.8902
L216.396 23.0562
L218.229 22.5496
L220.062 22.3345
L221.895 22.4111
L223.727 22.8018
L225.56 23.5301
L227.393 24.5998
L229.226 25.9772
L232.891 29.2983
L234.724 30.9742
L236.557 32.4602
L238.39 33.6282
L240.223 34.395
L242.055 34.7351
L243.888 34.6805
L245.721 34.3079
L249.387 33.0205
L253.052 31.6534
L254.885 31.1205
L256.718 30.7593
L258.551 30.6254
L260.383 30.7881
L262.216 31.3352
L264.049 32.3672
L265.882 33.9846
L267.715 36.2723
L269.547 39.2865
L271.38 43.049
L273.213 47.5464
L275.046 52.7277
L276.879 58.4958
L284.21 82.9626
L286.043 87.5862
L287.875 90.7021
L289.708 91.907
L291.541 90.9358
L293.374 87.7315
L295.207 82.5039
L297.039 75.7519
L300.705 60.7524
L302.538 54.1056
L304.371 48.74
L306.203 44.7433
L308.036 41.8879
L309.869 39.7868
L313.535 36.4452
L317.2 33.24
L319.033 31.7595
L320.866 30.4961
L322.699 29.5254
L324.531 28.8731
L326.364 28.5166
L328.197 28.4001
L331.863 28.6113
L333.695 28.817
L333.695 28.817" style="fill:none;stroke:#008000;stroke-linecap:square;stroke-width:2;"/>
   </g>
   <g id="line2d_29">
    <path clip-path="url(#p20d03b69dc)" d="
M58.7753 221.969
L63.5153 179.476
L68.2553 215.26
L72.9953 206.314
L77.7353 226.442
L82.4753 125.8
L87.2153 132.509
L91.9553 152.638
L96.6953 163.82
L101.435 163.82
L106.175 237.625
L110.915 228.679
L115.655 204.077
L120.395 213.023
L125.135 179.476
L129.875 90.0157
L134.615 188.422
L139.355 183.949
L144.095 157.111
L148.835 195.131
L153.575 204.077
L158.315 226.442
L163.055 215.26
L167.795 226.442
L172.535 230.915
L177.275 192.895
L182.015 195.131
L186.755 166.057
L191.495 110.144
L196.235 192.895
L200.975 188.422
L205.715 81.0697
L210.455 157.111
L215.195 128.036
L219.935 213.023
L224.675 157.111
L229.415 132.509
L234.155 141.455
L238.895 110.144
L243.635 163.82
L248.375 224.206
L253.115 157.111
L257.855 116.854
L262.595 128.036
L267.335 192.895
L272.075 116.854
L276.815 175.003
L281.555 123.563
L286.295 235.388
L291.035 226.442" style="fill:none;opacity:0.5;stroke:#0000ff;stroke-linecap:square;"/>
   </g>
   <g id="line2d_30">
    <path clip-path="url(#p20d03b69dc)" d="
M58.7753 219.733
L63.5153 204.077
L68.2553 235.388
L72.9953 116.854
L77.7353 143.692
L82.4753 197.368
L87.2153 119.09
L91.9553 221.969
L96.6953 139.219
L101.435 78.8332
L106.175 177.239
L110.915 210.787
L115.655 168.293
L120.395 213.023
L125.135 233.152
L129.875 168.293
L134.615 159.347
L139.355 186.185
L144.095 163.82
L148.835 210.787
L153.575 230.915
L158.315 206.314
L163.055 161.584
L167.795 201.841
L172.535 179.476
L177.275 208.55
L182.015 163.82
L186.755 175.003
L191.495 215.26
L196.235 172.766
L200.975 143.692
L205.715 150.401
L210.455 166.057
L215.195 139.219
L219.935 195.131
L224.675 128.036
L229.415 134.746
L234.155 123.563
L238.895 150.401
L243.635 221.969
L248.375 112.381
L253.115 141.455" style="fill:none;opacity:0.5;stroke:#0000ff;stroke-linecap:square;"/>
   </g>
   <g id="line2d_31">
    <path clip-path="url(#p20d03b69dc)" d="
M58.7753 233.152
L63.5153 237.625
L68.2553 161.584
L72.9953 143.692
L77.7353 199.604
L82.4753 181.712
L87.2153 183.949
L91.9553 181.712
L96.6953 228.679
L101.435 110.144
L106.175 123.563
L110.915 221.969
L115.655 134.746
L120.395 157.111
L125.135 150.401
L129.875 192.895
L134.615 148.165
L139.355 145.928
L144.095 81.0697
L148.835 157.111
L153.575 159.347
L158.315 217.496
L163.055 213.023
L167.795 204.077
L172.535 150.401
L177.275 230.915
L182.015 204.077
L186.755 213.023
L191.495 228.679
L196.235 210.787
L200.975 219.733
L205.715 213.023
L210.455 204.077
L215.195 235.388
L219.935 195.131
L224.675 195.131
L229.415 148.165
L234.155 123.563
L238.895 112.381
L243.635 181.712
L248.375 148.165
L253.115 134.746
L257.855 168.293
L262.595 170.53
L267.335 103.435
L272.075 136.982
L276.815 172.766
L281.555 170.53
L286.295 139.219
L291.035 94.4887
L295.775 192.895
L300.515 175.003
L305.255 221.969
L309.995 159.347
L314.735 213.023
L319.475 123.563
L324.215 152.638
L328.955 186.185
L333.695 105.671" style="fill:none;opacity:0.5;stroke:#0000ff;stroke-linecap:square;"/>
   </g>
   <g id="line2d_32"/>
   <g id="line2d_33"/>
   <g id="line2d_34"/>
   <g id="line2d_35"/>
   <g id="line2d_36"/>
   <g id="line2d_37"/>
   <g id="line2d_38"/>
   <g id="line2d_39"/>
   <g id="line2d_40"/>
   <g id="line2d_41">
    <path clip-path="url(#p20d03b69dc)" d="
M58.7753 225.987
L333.695 225.987" style="fill:none;stroke:#0000ff;stroke-dasharray:6.000000,6.000000;stroke-dashoffset:0.0;stroke-width:2;"/>
   </g>
   <g id="line2d_42">
    <path clip-path="url(#p20d03b69dc)" d="
M58.7753 209.204
L60.6081 206.598
L62.4409 203.649
L64.2737 200.383
L67.9393 193.187
L71.6049 185.869
L73.4377 182.47
L75.2705 179.366
L77.1033 176.603
L78.9361 174.201
L80.7689 172.161
L82.6017 170.474
L84.4345 169.119
L86.2673 168.052
L88.1001 167.206
L91.7657 165.895
L93.5985 165.382
L95.4313 165.056
L97.2641 165.084
L99.0969 165.662
L100.93 166.95
L102.763 168.992
L104.595 171.681
L108.261 177.89
L110.094 180.699
L111.927 182.891
L113.759 184.276
L115.592 184.789
L117.425 184.461
L119.258 183.392
L121.091 181.713
L122.923 179.575
L126.589 174.568
L128.422 172.035
L130.255 169.697
L132.087 167.693
L133.92 166.139
L135.753 165.134
L137.586 164.771
L139.419 165.143
L141.251 166.331
L143.084 168.384
L144.917 171.284
L146.75 174.926
L150.415 183.555
L152.248 187.951
L154.081 191.999
L155.914 195.462
L157.747 198.189
L159.579 200.133
L161.412 201.329
L163.245 201.878
L165.078 201.91
L166.911 201.561
L168.743 200.945
L170.576 200.146
L174.242 198.155
L177.907 195.715
L188.904 187.682
L192.57 185.147
L194.403 183.682
L196.235 182.013
L199.901 178.195
L201.734 176.276
L203.567 174.573
L205.399 173.246
L207.232 172.395
L209.065 172.018
L210.898 172.006
L212.731 172.146
L214.563 172.159
L216.396 171.752
L218.229 170.677
L220.062 168.783
L221.895 166.059
L223.727 162.644
L227.393 154.935
L229.226 151.415
L231.059 148.625
L232.891 146.837
L234.724 146.177
L236.557 146.597
L238.39 147.888
L243.888 153.431
L245.721 154.666
L247.554 155.234
L249.387 155.113
L251.219 154.396
L253.052 153.25
L258.551 149.134
L260.383 148.048
L262.216 147.263
L264.049 146.83
L265.882 146.789
L267.715 147.177
L269.547 148.018
L271.38 149.314
L273.213 151.032
L275.046 153.101
L278.711 157.859
L282.377 162.693
L286.043 167.038
L295.207 176.919
L298.872 181.231
L300.705 183.141
L302.538 184.574
L304.371 185.29
L306.203 185.114
L308.036 183.98
L309.869 181.932
L311.702 179.115
L313.535 175.743
L319.033 164.799
L320.866 161.567
L322.699 158.696
L324.531 156.145
L333.695 144.295
L333.695 144.295" style="fill:none;stroke:#0000ff;stroke-linecap:square;stroke-width:2;"/>
   </g>
   <g id="line2d_43">
    <path clip-path="url(#p20d03b69dc)" d="
M58.7753 195.131
L63.5153 145.928
L68.2553 123.563
L72.9953 103.435
L77.7353 143.692
L82.4753 87.7792
L87.2153 90.0157
L91.9553 92.2522
L96.6953 56.4682
L101.435 92.2522
L106.175 81.0697
L110.915 110.144
L115.655 92.2522
L120.395 105.671
L125.135 92.2522
L129.875 87.7792
L134.615 87.7792
L139.355 101.198
L144.095 107.908
L148.835 58.7047
L153.575 43.0492
L158.315 56.4682
L163.055 36.3397
L167.795 43.0492
L172.535 54.2317
L177.275 27.3937
L182.015 34.1032
L186.755 56.4682
L191.495 31.8667
L196.235 38.5762
L200.975 22.9207
L205.715 18.4477
L210.455 29.6302
L215.195 25.1572
L219.935 29.6302
L224.675 29.6302
L229.415 22.9207
L234.155 22.9207
L238.895 49.7587
L243.635 18.4477
L248.375 20.6842
L253.115 25.1572
L257.855 27.3937
L262.595 40.8127
L267.335 56.4682
L272.075 40.8127
L276.815 67.6507
L281.555 16.2112
L286.295 235.388
L291.035 237.625" style="fill:none;opacity:0.5;stroke:#000000;stroke-linecap:square;"/>
   </g>
   <g id="line2d_44">
    <path clip-path="url(#p20d03b69dc)" d="
M58.7753 132.509
L63.5153 201.841
L68.2553 204.077
L72.9953 128.036
L77.7353 47.5222
L82.4753 49.7587
L87.2153 60.9412
L91.9553 51.9952
L96.6953 47.5222
L101.435 152.638
L106.175 54.2317
L110.915 72.1237
L115.655 54.2317
L120.395 54.2317
L125.135 65.4142
L129.875 65.4142
L134.615 43.0492
L139.355 36.3397
L144.095 47.5222
L148.835 31.8667
L153.575 43.0492
L158.315 78.8332
L163.055 47.5222
L167.795 31.8667
L172.535 29.6302
L177.275 65.4142
L182.015 38.5762
L186.755 34.1032
L191.495 105.671
L196.235 103.435
L200.975 27.3937
L205.715 20.6842
L210.455 22.9207
L215.195 20.6842
L219.935 27.3937
L224.675 22.9207
L229.415 29.6302
L234.155 43.0492
L238.895 27.3937
L243.635 56.4682
L248.375 20.6842
L253.115 45.2857" style="fill:none;opacity:0.5;stroke:#000000;stroke-linecap:square;"/>
   </g>
   <g id="line2d_45">
    <path clip-path="url(#p20d03b69dc)" d="
M58.7753 163.82
L63.5153 199.604
L68.2553 230.915
L72.9953 175.003
L77.7353 74.3602
L82.4753 51.9952
L87.2153 58.7047
L91.9553 65.4142
L96.6953 47.5222
L101.435 54.2317
L106.175 51.9952
L110.915 49.7587
L115.655 63.1777
L120.395 98.9617
L125.135 60.9412
L129.875 69.8872
L134.615 56.4682
L139.355 69.8872
L144.095 65.4142
L148.835 27.3937
L153.575 76.5967
L158.315 60.9412
L163.055 36.3397
L167.795 56.4682
L172.535 83.3062
L177.275 43.0492
L182.015 22.9207
L186.755 27.3937
L191.495 58.7047
L196.235 94.4887
L200.975 60.9412
L205.715 22.9207
L210.455 25.1572
L215.195 18.4477
L219.935 20.6842
L224.675 18.4477
L229.415 27.3937
L234.155 22.9207
L238.895 40.8127
L243.635 51.9952
L248.375 34.1032
L253.115 25.1572
L257.855 20.6842
L262.595 22.9207
L267.335 31.8667
L272.075 25.1572
L276.815 90.0157
L281.555 34.1032
L286.295 22.9207
L291.035 49.7587
L295.775 29.6302
L300.515 20.6842
L305.255 36.3397
L309.995 47.5222
L314.735 43.0492
L319.475 25.1572
L324.215 22.9207
L328.955 43.0492
L333.695 38.5762" style="fill:none;opacity:0.5;stroke:#000000;stroke-linecap:square;"/>
   </g>
   <g id="line2d_46"/>
   <g id="line2d_47"/>
   <g id="line2d_48"/>
   <g id="line2d_49"/>
   <g id="line2d_50"/>
   <g id="line2d_51"/>
   <g id="line2d_52"/>
   <g id="line2d_53"/>
   <g id="line2d_54"/>
   <g id="line2d_55">
    <path clip-path="url(#p20d03b69dc)" d="
M58.7753 234.368
L333.695 234.368" style="fill:none;stroke:#000000;stroke-dasharray:6.000000,6.000000;stroke-dashoffset:0.0;stroke-width:2;"/>
   </g>
   <g id="line2d_56">
    <path clip-path="url(#p20d03b69dc)" d="
M58.7753 170.019
L60.6081 168.734
L62.4409 166.58
L64.2737 163.344
L66.1065 158.848
L67.9393 152.991
L69.7721 145.794
L71.6049 137.431
L75.2705 118.64
L78.9361 100.254
L80.7689 92.3168
L82.6017 85.5944
L84.4345 80.1948
L86.2673 76.1033
L88.1001 73.2179
L89.9329 71.3864
L91.7657 70.4346
L93.5985 70.1814
L95.4313 70.4439
L97.2641 71.041
L102.763 73.2592
L104.595 73.7984
L108.261 74.4845
L115.592 75.412
L117.425 75.5609
L119.258 75.5759
L121.091 75.3997
L122.923 74.9985
L124.756 74.3696
L126.589 73.5416
L130.255 71.4898
L135.753 68.0076
L139.419 65.3799
L143.084 62.3289
L146.75 59.1169
L148.583 57.6329
L150.415 56.311
L152.248 55.1658
L155.914 53.2731
L163.245 49.9069
L166.911 48.4107
L172.409 46.4884
L176.075 45.398
L177.907 45.0827
L179.74 45.0733
L181.573 45.4722
L183.406 46.3215
L185.239 47.5684
L188.904 50.5141
L190.737 51.6482
L192.57 52.1533
L194.403 51.8026
L196.235 50.4938
L198.068 48.2721
L199.901 45.3204
L205.399 35.0115
L207.232 32.0308
L209.065 29.5786
L210.898 27.7018
L212.731 26.3756
L214.563 25.5307
L216.396 25.0814
L218.229 24.9463
L220.062 25.0612
L221.895 25.3836
L223.727 25.8894
L225.56 26.5657
L227.393 27.4005
L231.059 29.4424
L234.724 31.6158
L236.557 32.5515
L238.39 33.2736
L240.223 33.7207
L242.055 33.8659
L243.888 33.7242
L245.721 33.3495
L253.052 31.3648
L254.885 31.2411
L256.718 31.4352
L258.551 32.0044
L260.383 32.9845
L262.216 34.3875
L264.049 36.2041
L265.882 38.4132
L267.715 40.996
L269.547 43.9504
L271.38 47.2998
L273.213 51.0897
L275.046 55.3704
L276.879 60.1651
L280.544 71.0152
L284.21 81.9281
L286.043 86.3844
L287.875 89.5159
L289.708 90.8751
L291.541 90.1437
L293.374 87.2083
L295.207 82.2231
L297.039 75.6395
L300.705 60.6617
L302.538 53.8979
L304.371 48.4016
L306.203 44.3335
L308.036 41.5296
L309.869 39.6396
L311.702 38.2861
L315.367 36.1719
L317.2 35.2359
L319.033 34.4307
L320.866 33.842
L322.699 33.5364
L324.531 33.5353
L326.364 33.8108
L328.197 34.2988
L333.695 36.2515
L333.695 36.2515" style="fill:none;stroke:#000000;stroke-linecap:square;stroke-width:2;"/>
   </g>
   <g id="patch_3">
    <path d="
M58.7753 13.9747
L343.175 13.9747" style="fill:none;stroke:#000000;stroke-linecap:square;stroke-linejoin:miter;"/>
   </g>
   <g id="patch_4">
    <path d="
M343.175 237.625
L343.175 13.9747" style="fill:none;stroke:#000000;stroke-linecap:square;stroke-linejoin:miter;"/>
   </g>
   <g id="patch_5">
    <path d="
M58.7753 237.625
L343.175 237.625" style="fill:none;stroke:#000000;stroke-linecap:square;stroke-linejoin:miter;"/>
   </g>
   <g id="patch_6">
    <path d="
M58.7753 237.625
L58.7753 13.9747" style="fill:none;stroke:#000000;stroke-linecap:square;stroke-linejoin:miter;"/>
   </g>
   <g id="matplotlib.axis_1">
    <g id="xtick_1">
     <g id="line2d_57">
      <defs>
       <path d="
M0 0
L0 -4" id="m93b0483c22" style="stroke:#000000;stroke-width:0.5;"/>
      </defs>
      <g>
       <use style="stroke:#000000;stroke-width:0.5;" x="58.7753125" xlink:href="#m93b0483c22" y="237.6246875"/>
      </g>
     </g>
     <g id="line2d_58">
      <defs>
       <path d="
M0 0
L0 4" id="m741efc42ff" style="stroke:#000000;stroke-width:0.5;"/>
      </defs>
      <g>
       <use style="stroke:#000000;stroke-width:0.5;" x="58.7753125" xlink:href="#m741efc42ff" y="13.9746875"/>
      </g>
     </g>
     <g id="text_1">
      <!-- 0 -->
      <defs>
       <path d="
M31.7812 66.4062
Q24.1719 66.4062 20.3281 58.9062
Q16.5 51.4219 16.5 36.375
Q16.5 21.3906 20.3281 13.8906
Q24.1719 6.39062 31.7812 6.39062
Q39.4531 6.39062 43.2812 13.8906
Q47.125 21.3906 47.125 36.375
Q47.125 51.4219 43.2812 58.9062
Q39.4531 66.4062 31.7812 66.4062
M31.7812 74.2188
Q44.0469 74.2188 50.5156 64.5156
Q56.9844 54.8281 56.9844 36.375
Q56.9844 17.9688 50.5156 8.26562
Q44.0469 -1.42188 31.7812 -1.42188
Q19.5312 -1.42188 13.0625 8.26562
Q6.59375 17.9688 6.59375 36.375
Q6.59375 54.8281 13.0625 64.5156
Q19.5312 74.2188 31.7812 74.2188" id="BitstreamVeraSans-Roman-30"/>
      </defs>
      <g transform="translate(55.24796875 252.2625)scale(0.14 -0.14)">
       <use xlink:href="#BitstreamVeraSans-Roman-30"/>
      </g>
     </g>
    </g>
    <g id="xtick_2">
     <g id="line2d_59">
      <g>
       <use style="stroke:#000000;stroke-width:0.5;" x="106.1753125" xlink:href="#m93b0483c22" y="237.6246875"/>
      </g>
     </g>
     <g id="line2d_60">
      <g>
       <use style="stroke:#000000;stroke-width:0.5;" x="106.1753125" xlink:href="#m741efc42ff" y="13.9746875"/>
      </g>
     </g>
     <g id="text_2">
      <!-- 10 -->
      <defs>
       <path d="
M12.4062 8.29688
L28.5156 8.29688
L28.5156 63.9219
L10.9844 60.4062
L10.9844 69.3906
L28.4219 72.9062
L38.2812 72.9062
L38.2812 8.29688
L54.3906 8.29688
L54.3906 0
L12.4062 0
z
" id="BitstreamVeraSans-Roman-31"/>
      </defs>
      <g transform="translate(98.5015625 252.2625)scale(0.14 -0.14)">
       <use xlink:href="#BitstreamVeraSans-Roman-31"/>
       <use x="63.623046875" xlink:href="#BitstreamVeraSans-Roman-30"/>
      </g>
     </g>
    </g>
    <g id="xtick_3">
     <g id="line2d_61">
      <g>
       <use style="stroke:#000000;stroke-width:0.5;" x="153.5753125" xlink:href="#m93b0483c22" y="237.6246875"/>
      </g>
     </g>
     <g id="line2d_62">
      <g>
       <use style="stroke:#000000;stroke-width:0.5;" x="153.5753125" xlink:href="#m741efc42ff" y="13.9746875"/>
      </g>
     </g>
     <g id="text_3">
      <!-- 20 -->
      <defs>
       <path d="
M19.1875 8.29688
L53.6094 8.29688
L53.6094 0
L7.32812 0
L7.32812 8.29688
Q12.9375 14.1094 22.625 23.8906
Q32.3281 33.6875 34.8125 36.5312
Q39.5469 41.8438 41.4219 45.5312
Q43.3125 49.2188 43.3125 52.7812
Q43.3125 58.5938 39.2344 62.25
Q35.1562 65.9219 28.6094 65.9219
Q23.9688 65.9219 18.8125 64.3125
Q13.6719 62.7031 7.8125 59.4219
L7.8125 69.3906
Q13.7656 71.7812 18.9375 73
Q24.125 74.2188 28.4219 74.2188
Q39.75 74.2188 46.4844 68.5469
Q53.2188 62.8906 53.2188 53.4219
Q53.2188 48.9219 51.5312 44.8906
Q49.8594 40.875 45.4062 35.4062
Q44.1875 33.9844 37.6406 27.2188
Q31.1094 20.4531 19.1875 8.29688" id="BitstreamVeraSans-Roman-32"/>
      </defs>
      <g transform="translate(145.645625 252.2625)scale(0.14 -0.14)">
       <use xlink:href="#BitstreamVeraSans-Roman-32"/>
       <use x="63.623046875" xlink:href="#BitstreamVeraSans-Roman-30"/>
      </g>
     </g>
    </g>
    <g id="xtick_4">
     <g id="line2d_63">
      <g>
       <use style="stroke:#000000;stroke-width:0.5;" x="200.9753125" xlink:href="#m93b0483c22" y="237.6246875"/>
      </g>
     </g>
     <g id="line2d_64">
      <g>
       <use style="stroke:#000000;stroke-width:0.5;" x="200.9753125" xlink:href="#m741efc42ff" y="13.9746875"/>
      </g>
     </g>
     <g id="text_4">
      <!-- 30 -->
      <defs>
       <path d="
M40.5781 39.3125
Q47.6562 37.7969 51.625 33
Q55.6094 28.2188 55.6094 21.1875
Q55.6094 10.4062 48.1875 4.48438
Q40.7656 -1.42188 27.0938 -1.42188
Q22.5156 -1.42188 17.6562 -0.515625
Q12.7969 0.390625 7.625 2.20312
L7.625 11.7188
Q11.7188 9.32812 16.5938 8.10938
Q21.4844 6.89062 26.8125 6.89062
Q36.0781 6.89062 40.9375 10.5469
Q45.7969 14.2031 45.7969 21.1875
Q45.7969 27.6406 41.2812 31.2656
Q36.7656 34.9062 28.7188 34.9062
L20.2188 34.9062
L20.2188 43.0156
L29.1094 43.0156
Q36.375 43.0156 40.2344 45.9219
Q44.0938 48.8281 44.0938 54.2969
Q44.0938 59.9062 40.1094 62.9062
Q36.1406 65.9219 28.7188 65.9219
Q24.6562 65.9219 20.0156 65.0312
Q15.375 64.1562 9.8125 62.3125
L9.8125 71.0938
Q15.4375 72.6562 20.3438 73.4375
Q25.25 74.2188 29.5938 74.2188
Q40.8281 74.2188 47.3594 69.1094
Q53.9062 64.0156 53.9062 55.3281
Q53.9062 49.2656 50.4375 45.0938
Q46.9688 40.9219 40.5781 39.3125" id="BitstreamVeraSans-Roman-33"/>
      </defs>
      <g transform="translate(193.06640625 252.2625)scale(0.14 -0.14)">
       <use xlink:href="#BitstreamVeraSans-Roman-33"/>
       <use x="63.623046875" xlink:href="#BitstreamVeraSans-Roman-30"/>
      </g>
     </g>
    </g>
    <g id="xtick_5">
     <g id="line2d_65">
      <g>
       <use style="stroke:#000000;stroke-width:0.5;" x="248.3753125" xlink:href="#m93b0483c22" y="237.6246875"/>
      </g>
     </g>
     <g id="line2d_66">
      <g>
       <use style="stroke:#000000;stroke-width:0.5;" x="248.3753125" xlink:href="#m741efc42ff" y="13.9746875"/>
      </g>
     </g>
     <g id="text_5">
      <!-- 40 -->
      <defs>
       <path d="
M37.7969 64.3125
L12.8906 25.3906
L37.7969 25.3906
z

M35.2031 72.9062
L47.6094 72.9062
L47.6094 25.3906
L58.0156 25.3906
L58.0156 17.1875
L47.6094 17.1875
L47.6094 0
L37.7969 0
L37.7969 17.1875
L4.89062 17.1875
L4.89062 26.7031
z
" id="BitstreamVeraSans-Roman-34"/>
      </defs>
      <g transform="translate(240.275 252.2625)scale(0.14 -0.14)">
       <use xlink:href="#BitstreamVeraSans-Roman-34"/>
       <use x="63.623046875" xlink:href="#BitstreamVeraSans-Roman-30"/>
      </g>
     </g>
    </g>
    <g id="xtick_6">
     <g id="line2d_67">
      <g>
       <use style="stroke:#000000;stroke-width:0.5;" x="295.7753125" xlink:href="#m93b0483c22" y="237.6246875"/>
      </g>
     </g>
     <g id="line2d_68">
      <g>
       <use style="stroke:#000000;stroke-width:0.5;" x="295.7753125" xlink:href="#m741efc42ff" y="13.9746875"/>
      </g>
     </g>
     <g id="text_6">
      <!-- 50 -->
      <defs>
       <path d="
M10.7969 72.9062
L49.5156 72.9062
L49.5156 64.5938
L19.8281 64.5938
L19.8281 46.7344
Q21.9688 47.4688 24.1094 47.8281
Q26.2656 48.1875 28.4219 48.1875
Q40.625 48.1875 47.75 41.5
Q54.8906 34.8125 54.8906 23.3906
Q54.8906 11.625 47.5625 5.09375
Q40.2344 -1.42188 26.9062 -1.42188
Q22.3125 -1.42188 17.5469 -0.640625
Q12.7969 0.140625 7.71875 1.70312
L7.71875 11.625
Q12.1094 9.23438 16.7969 8.0625
Q21.4844 6.89062 26.7031 6.89062
Q35.1562 6.89062 40.0781 11.3281
Q45.0156 15.7656 45.0156 23.3906
Q45.0156 31 40.0781 35.4375
Q35.1562 39.8906 26.7031 39.8906
Q22.75 39.8906 18.8125 39.0156
Q14.8906 38.1406 10.7969 36.2812
z
" id="BitstreamVeraSans-Roman-35"/>
      </defs>
      <g transform="translate(287.87296875 252.2625)scale(0.14 -0.14)">
       <use xlink:href="#BitstreamVeraSans-Roman-35"/>
       <use x="63.623046875" xlink:href="#BitstreamVeraSans-Roman-30"/>
      </g>
     </g>
    </g>
    <g id="xtick_7">
     <g id="line2d_69">
      <g>
       <use style="stroke:#000000;stroke-width:0.5;" x="343.1753125" xlink:href="#m93b0483c22" y="237.6246875"/>
      </g>
     </g>
     <g id="line2d_70">
      <g>
       <use style="stroke:#000000;stroke-width:0.5;" x="343.1753125" xlink:href="#m741efc42ff" y="13.9746875"/>
      </g>
     </g>
     <g id="text_7">
      <!-- 60 -->
      <defs>
       <path d="
M33.0156 40.375
Q26.375 40.375 22.4844 35.8281
Q18.6094 31.2969 18.6094 23.3906
Q18.6094 15.5312 22.4844 10.9531
Q26.375 6.39062 33.0156 6.39062
Q39.6562 6.39062 43.5312 10.9531
Q47.4062 15.5312 47.4062 23.3906
Q47.4062 31.2969 43.5312 35.8281
Q39.6562 40.375 33.0156 40.375
M52.5938 71.2969
L52.5938 62.3125
Q48.875 64.0625 45.0938 64.9844
Q41.3125 65.9219 37.5938 65.9219
Q27.8281 65.9219 22.6719 59.3281
Q17.5312 52.7344 16.7969 39.4062
Q19.6719 43.6562 24.0156 45.9219
Q28.375 48.1875 33.5938 48.1875
Q44.5781 48.1875 50.9531 41.5156
Q57.3281 34.8594 57.3281 23.3906
Q57.3281 12.1562 50.6875 5.35938
Q44.0469 -1.42188 33.0156 -1.42188
Q20.3594 -1.42188 13.6719 8.26562
Q6.98438 17.9688 6.98438 36.375
Q6.98438 53.6562 15.1875 63.9375
Q23.3906 74.2188 37.2031 74.2188
Q40.9219 74.2188 44.7031 73.4844
Q48.4844 72.75 52.5938 71.2969" id="BitstreamVeraSans-Roman-36"/>
      </defs>
      <g transform="translate(335.2215625 252.2625)scale(0.14 -0.14)">
       <use xlink:href="#BitstreamVeraSans-Roman-36"/>
       <use x="63.623046875" xlink:href="#BitstreamVeraSans-Roman-30"/>
      </g>
     </g>
    </g>
    <g id="text_8">
     <!-- Latency (s) -->
     <defs>
      <path id="BitstreamVeraSans-Roman-20"/>
      <path d="
M9.8125 72.9062
L19.6719 72.9062
L19.6719 8.29688
L55.1719 8.29688
L55.1719 0
L9.8125 0
z
" id="BitstreamVeraSans-Roman-4c"/>
      <path d="
M54.8906 33.0156
L54.8906 0
L45.9062 0
L45.9062 32.7188
Q45.9062 40.4844 42.875 44.3281
Q39.8438 48.1875 33.7969 48.1875
Q26.5156 48.1875 22.3125 43.5469
Q18.1094 38.9219 18.1094 30.9062
L18.1094 0
L9.07812 0
L9.07812 54.6875
L18.1094 54.6875
L18.1094 46.1875
Q21.3438 51.125 25.7031 53.5625
Q30.0781 56 35.7969 56
Q45.2188 56 50.0469 50.1719
Q54.8906 44.3438 54.8906 33.0156" id="BitstreamVeraSans-Roman-6e"/>
      <path d="
M31 75.875
Q24.4688 64.6562 21.2812 53.6562
Q18.1094 42.6719 18.1094 31.3906
Q18.1094 20.125 21.3125 9.0625
Q24.5156 -2 31 -13.1875
L23.1875 -13.1875
Q15.875 -1.70312 12.2344 9.375
Q8.59375 20.4531 8.59375 31.3906
Q8.59375 42.2812 12.2031 53.3125
Q15.8281 64.3594 23.1875 75.875
z
" id="BitstreamVeraSans-Roman-28"/>
      <path d="
M8.01562 75.875
L15.8281 75.875
Q23.1406 64.3594 26.7812 53.3125
Q30.4219 42.2812 30.4219 31.3906
Q30.4219 20.4531 26.7812 9.375
Q23.1406 -1.70312 15.8281 -13.1875
L8.01562 -13.1875
Q14.5 -2 17.7031 9.0625
Q20.9062 20.125 20.9062 31.3906
Q20.9062 42.6719 17.7031 53.6562
Q14.5 64.6562 8.01562 75.875" id="BitstreamVeraSans-Roman-29"/>
      <path d="
M32.1719 -5.07812
Q28.375 -14.8438 24.75 -17.8125
Q21.1406 -20.7969 15.0938 -20.7969
L7.90625 -20.7969
L7.90625 -13.2812
L13.1875 -13.2812
Q16.8906 -13.2812 18.9375 -11.5156
Q21 -9.76562 23.4844 -3.21875
L25.0938 0.875
L2.98438 54.6875
L12.5 54.6875
L29.5938 11.9219
L46.6875 54.6875
L56.2031 54.6875
z
" id="BitstreamVeraSans-Roman-79"/>
      <path d="
M56.2031 29.5938
L56.2031 25.2031
L14.8906 25.2031
Q15.4844 15.9219 20.4844 11.0625
Q25.4844 6.20312 34.4219 6.20312
Q39.5938 6.20312 44.4531 7.46875
Q49.3125 8.73438 54.1094 11.2812
L54.1094 2.78125
Q49.2656 0.734375 44.1875 -0.34375
Q39.1094 -1.42188 33.8906 -1.42188
Q20.7969 -1.42188 13.1562 6.1875
Q5.51562 13.8125 5.51562 26.8125
Q5.51562 40.2344 12.7656 48.1094
Q20.0156 56 32.3281 56
Q43.3594 56 49.7812 48.8906
Q56.2031 41.7969 56.2031 29.5938
M47.2188 32.2344
Q47.125 39.5938 43.0938 43.9844
Q39.0625 48.3906 32.4219 48.3906
Q24.9062 48.3906 20.3906 44.1406
Q15.875 39.8906 15.1875 32.1719
z
" id="BitstreamVeraSans-Roman-65"/>
      <path d="
M18.3125 70.2188
L18.3125 54.6875
L36.8125 54.6875
L36.8125 47.7031
L18.3125 47.7031
L18.3125 18.0156
Q18.3125 11.3281 20.1406 9.42188
Q21.9688 7.51562 27.5938 7.51562
L36.8125 7.51562
L36.8125 0
L27.5938 0
Q17.1875 0 13.2344 3.875
Q9.28125 7.76562 9.28125 18.0156
L9.28125 47.7031
L2.6875 47.7031
L2.6875 54.6875
L9.28125 54.6875
L9.28125 70.2188
z
" id="BitstreamVeraSans-Roman-74"/>
      <path d="
M34.2812 27.4844
Q23.3906 27.4844 19.1875 25
Q14.9844 22.5156 14.9844 16.5
Q14.9844 11.7188 18.1406 8.90625
Q21.2969 6.10938 26.7031 6.10938
Q34.1875 6.10938 38.7031 11.4062
Q43.2188 16.7031 43.2188 25.4844
L43.2188 27.4844
z

M52.2031 31.2031
L52.2031 0
L43.2188 0
L43.2188 8.29688
Q40.1406 3.32812 35.5469 0.953125
Q30.9531 -1.42188 24.3125 -1.42188
Q15.9219 -1.42188 10.9531 3.29688
Q6 8.01562 6 15.9219
Q6 25.1406 12.1719 29.8281
Q18.3594 34.5156 30.6094 34.5156
L43.2188 34.5156
L43.2188 35.4062
Q43.2188 41.6094 39.1406 45
Q35.0625 48.3906 27.6875 48.3906
Q23 48.3906 18.5469 47.2656
Q14.1094 46.1406 10.0156 43.8906
L10.0156 52.2031
Q14.9375 54.1094 19.5781 55.0469
Q24.2188 56 28.6094 56
Q40.4844 56 46.3438 49.8438
Q52.2031 43.7031 52.2031 31.2031" id="BitstreamVeraSans-Roman-61"/>
      <path d="
M44.2812 53.0781
L44.2812 44.5781
Q40.4844 46.5312 36.375 47.5
Q32.2812 48.4844 27.875 48.4844
Q21.1875 48.4844 17.8438 46.4375
Q14.5 44.3906 14.5 40.2812
Q14.5 37.1562 16.8906 35.375
Q19.2812 33.5938 26.5156 31.9844
L29.5938 31.2969
Q39.1562 29.25 43.1875 25.5156
Q47.2188 21.7812 47.2188 15.0938
Q47.2188 7.46875 41.1875 3.01562
Q35.1562 -1.42188 24.6094 -1.42188
Q20.2188 -1.42188 15.4531 -0.5625
Q10.6875 0.296875 5.42188 2
L5.42188 11.2812
Q10.4062 8.6875 15.2344 7.39062
Q20.0625 6.10938 24.8125 6.10938
Q31.1562 6.10938 34.5625 8.28125
Q37.9844 10.4531 37.9844 14.4062
Q37.9844 18.0625 35.5156 20.0156
Q33.0625 21.9688 24.7031 23.7812
L21.5781 24.5156
Q13.2344 26.2656 9.51562 29.9062
Q5.8125 33.5469 5.8125 39.8906
Q5.8125 47.6094 11.2812 51.7969
Q16.75 56 26.8125 56
Q31.7812 56 36.1719 55.2656
Q40.5781 54.5469 44.2812 53.0781" id="BitstreamVeraSans-Roman-73"/>
      <path d="
M48.7812 52.5938
L48.7812 44.1875
Q44.9688 46.2969 41.1406 47.3438
Q37.3125 48.3906 33.4062 48.3906
Q24.6562 48.3906 19.8125 42.8438
Q14.9844 37.3125 14.9844 27.2969
Q14.9844 17.2812 19.8125 11.7344
Q24.6562 6.20312 33.4062 6.20312
Q37.3125 6.20312 41.1406 7.25
Q44.9688 8.29688 48.7812 10.4062
L48.7812 2.09375
Q45.0156 0.34375 40.9844 -0.53125
Q36.9688 -1.42188 32.4219 -1.42188
Q20.0625 -1.42188 12.7812 6.34375
Q5.51562 14.1094 5.51562 27.2969
Q5.51562 40.6719 12.8594 48.3281
Q20.2188 56 33.0156 56
Q37.1562 56 41.1094 55.1406
Q45.0625 54.2969 48.7812 52.5938" id="BitstreamVeraSans-Roman-63"/>
     </defs>
     <g transform="translate(162.57375 270.811875)scale(0.14 -0.14)">
      <use xlink:href="#BitstreamVeraSans-Roman-4c"/>
      <use x="55.712890625" xlink:href="#BitstreamVeraSans-Roman-61"/>
      <use x="116.9921875" xlink:href="#BitstreamVeraSans-Roman-74"/>
      <use x="156.201171875" xlink:href="#BitstreamVeraSans-Roman-65"/>
      <use x="217.724609375" xlink:href="#BitstreamVeraSans-Roman-6e"/>
      <use x="281.103515625" xlink:href="#BitstreamVeraSans-Roman-63"/>
      <use x="336.083984375" xlink:href="#BitstreamVeraSans-Roman-79"/>
      <use x="395.263671875" xlink:href="#BitstreamVeraSans-Roman-20"/>
      <use x="427.05078125" xlink:href="#BitstreamVeraSans-Roman-28"/>
      <use x="466.064453125" xlink:href="#BitstreamVeraSans-Roman-73"/>
      <use x="518.1640625" xlink:href="#BitstreamVeraSans-Roman-29"/>
     </g>
    </g>
   </g>
   <g id="matplotlib.axis_2">
    <g id="ytick_1">
     <g id="line2d_71">
      <defs>
       <path d="
M0 0
L4 0" id="m728421d6d4" style="stroke:#000000;stroke-width:0.5;"/>
      </defs>
      <g>
       <use style="stroke:#000000;stroke-width:0.5;" x="58.7753125" xlink:href="#m728421d6d4" y="237.6246875"/>
      </g>
     </g>
     <g id="line2d_72">
      <defs>
       <path d="
M0 0
L-4 0" id="mcb0005524f" style="stroke:#000000;stroke-width:0.5;"/>
      </defs>
      <g>
       <use style="stroke:#000000;stroke-width:0.5;" x="343.1753125" xlink:href="#mcb0005524f" y="237.6246875"/>
      </g>
     </g>
     <g id="text_9">
      <!-- 0 -->
      <g transform="translate(47.720625 241.4878125)scale(0.14 -0.14)">
       <use xlink:href="#BitstreamVeraSans-Roman-30"/>
      </g>
     </g>
    </g>
    <g id="ytick_2">
     <g id="line2d_73">
      <g>
       <use style="stroke:#000000;stroke-width:0.5;" x="58.7753125" xlink:href="#m728421d6d4" y="181.7121875"/>
      </g>
     </g>
     <g id="line2d_74">
      <g>
       <use style="stroke:#000000;stroke-width:0.5;" x="343.1753125" xlink:href="#mcb0005524f" y="181.7121875"/>
      </g>
     </g>
     <g id="text_10">
      <!-- 0.25 -->
      <defs>
       <path d="
M10.6875 12.4062
L21 12.4062
L21 0
L10.6875 0
z
" id="BitstreamVeraSans-Roman-2e"/>
      </defs>
      <g transform="translate(25.749375 185.5753125)scale(0.14 -0.14)">
       <use xlink:href="#BitstreamVeraSans-Roman-30"/>
       <use x="63.623046875" xlink:href="#BitstreamVeraSans-Roman-2e"/>
       <use x="95.41015625" xlink:href="#BitstreamVeraSans-Roman-32"/>
       <use x="159.033203125" xlink:href="#BitstreamVeraSans-Roman-35"/>
      </g>
     </g>
    </g>
    <g id="ytick_3">
     <g id="line2d_75">
      <g>
       <use style="stroke:#000000;stroke-width:0.5;" x="58.7753125" xlink:href="#m728421d6d4" y="125.7996875"/>
      </g>
     </g>
     <g id="line2d_76">
      <g>
       <use style="stroke:#000000;stroke-width:0.5;" x="343.1753125" xlink:href="#mcb0005524f" y="125.7996875"/>
      </g>
     </g>
     <g id="text_11">
      <!-- 0.5 -->
      <g transform="translate(34.656875 129.6628125)scale(0.14 -0.14)">
       <use xlink:href="#BitstreamVeraSans-Roman-30"/>
       <use x="63.623046875" xlink:href="#BitstreamVeraSans-Roman-2e"/>
       <use x="95.41015625" xlink:href="#BitstreamVeraSans-Roman-35"/>
      </g>
     </g>
    </g>
    <g id="ytick_4">
     <g id="line2d_77">
      <g>
       <use style="stroke:#000000;stroke-width:0.5;" x="58.7753125" xlink:href="#m728421d6d4" y="69.8871875"/>
      </g>
     </g>
     <g id="line2d_78">
      <g>
       <use style="stroke:#000000;stroke-width:0.5;" x="343.1753125" xlink:href="#mcb0005524f" y="69.8871875"/>
      </g>
     </g>
     <g id="text_12">
      <!-- 0.75 -->
      <defs>
       <path d="
M8.20312 72.9062
L55.0781 72.9062
L55.0781 68.7031
L28.6094 0
L18.3125 0
L43.2188 64.5938
L8.20312 64.5938
z
" id="BitstreamVeraSans-Roman-37"/>
      </defs>
      <g transform="translate(25.749375 73.7503125)scale(0.14 -0.14)">
       <use xlink:href="#BitstreamVeraSans-Roman-30"/>
       <use x="63.623046875" xlink:href="#BitstreamVeraSans-Roman-2e"/>
       <use x="95.41015625" xlink:href="#BitstreamVeraSans-Roman-37"/>
       <use x="159.033203125" xlink:href="#BitstreamVeraSans-Roman-35"/>
      </g>
     </g>
    </g>
    <g id="ytick_5">
     <g id="line2d_79">
      <g>
       <use style="stroke:#000000;stroke-width:0.5;" x="58.7753125" xlink:href="#m728421d6d4" y="13.9746875"/>
      </g>
     </g>
     <g id="line2d_80">
      <g>
       <use style="stroke:#000000;stroke-width:0.5;" x="343.1753125" xlink:href="#mcb0005524f" y="13.9746875"/>
      </g>
     </g>
     <g id="text_13">
      <!-- 1 -->
      <g transform="translate(48.6984375 17.8378125)scale(0.14 -0.14)">
       <use xlink:href="#BitstreamVeraSans-Roman-31"/>
      </g>
     </g>
    </g>
    <g id="text_14">
     <!-- P(seizure) -->
     <defs>
      <path d="
M19.6719 64.7969
L19.6719 37.4062
L32.0781 37.4062
Q38.9688 37.4062 42.7188 40.9688
Q46.4844 44.5312 46.4844 51.125
Q46.4844 57.6719 42.7188 61.2344
Q38.9688 64.7969 32.0781 64.7969
z

M9.8125 72.9062
L32.0781 72.9062
Q44.3438 72.9062 50.6094 67.3594
Q56.8906 61.8125 56.8906 51.125
Q56.8906 40.3281 50.6094 34.8125
Q44.3438 29.2969 32.0781 29.2969
L19.6719 29.2969
L19.6719 0
L9.8125 0
z
" id="BitstreamVeraSans-Roman-50"/>
      <path d="
M41.1094 46.2969
Q39.5938 47.1719 37.8125 47.5781
Q36.0312 48 33.8906 48
Q26.2656 48 22.1875 43.0469
Q18.1094 38.0938 18.1094 28.8125
L18.1094 0
L9.07812 0
L9.07812 54.6875
L18.1094 54.6875
L18.1094 46.1875
Q20.9531 51.1719 25.4844 53.5781
Q30.0312 56 36.5312 56
Q37.4531 56 38.5781 55.875
Q39.7031 55.7656 41.0625 55.5156
z
" id="BitstreamVeraSans-Roman-72"/>
      <path d="
M8.5 21.5781
L8.5 54.6875
L17.4844 54.6875
L17.4844 21.9219
Q17.4844 14.1562 20.5 10.2656
Q23.5312 6.39062 29.5938 6.39062
Q36.8594 6.39062 41.0781 11.0312
Q45.3125 15.6719 45.3125 23.6875
L45.3125 54.6875
L54.2969 54.6875
L54.2969 0
L45.3125 0
L45.3125 8.40625
Q42.0469 3.42188 37.7188 1
Q33.4062 -1.42188 27.6875 -1.42188
Q18.2656 -1.42188 13.375 4.4375
Q8.5 10.2969 8.5 21.5781" id="BitstreamVeraSans-Roman-75"/>
      <path d="
M9.42188 54.6875
L18.4062 54.6875
L18.4062 0
L9.42188 0
z

M9.42188 75.9844
L18.4062 75.9844
L18.4062 64.5938
L9.42188 64.5938
z
" id="BitstreamVeraSans-Roman-69"/>
      <path d="
M5.51562 54.6875
L48.1875 54.6875
L48.1875 46.4844
L14.4062 7.17188
L48.1875 7.17188
L48.1875 0
L4.29688 0
L4.29688 8.20312
L38.0938 47.5156
L5.51562 47.5156
z
" id="BitstreamVeraSans-Roman-7a"/>
     </defs>
     <g transform="translate(17.8378125 159.23015625)rotate(-90.0)scale(0.14 -0.14)">
      <use xlink:href="#BitstreamVeraSans-Roman-50"/>
      <use x="60.302734375" xlink:href="#BitstreamVeraSans-Roman-28"/>
      <use x="99.31640625" xlink:href="#BitstreamVeraSans-Roman-73"/>
      <use x="151.416015625" xlink:href="#BitstreamVeraSans-Roman-65"/>
      <use x="212.939453125" xlink:href="#BitstreamVeraSans-Roman-69"/>
      <use x="240.72265625" xlink:href="#BitstreamVeraSans-Roman-7a"/>
      <use x="293.212890625" xlink:href="#BitstreamVeraSans-Roman-75"/>
      <use x="356.591796875" xlink:href="#BitstreamVeraSans-Roman-72"/>
      <use x="395.455078125" xlink:href="#BitstreamVeraSans-Roman-65"/>
      <use x="456.978515625" xlink:href="#BitstreamVeraSans-Roman-29"/>
     </g>
    </g>
   </g>
  </g>
  <g id="axes_2">
   <g id="patch_7">
    <path d="
M413.375 237.625
L697.775 237.625
L697.775 13.9747
L413.375 13.9747
z
" style="fill:#ffffff;"/>
   </g>
   <g id="line2d_81">
    <path clip-path="url(#p410768f2a7)" d="
M413.375 224.206
L418.115 170.53
L422.855 139.219
L427.595 192.895
L432.335 177.239
L437.075 188.422
L441.815 132.509
L446.555 134.746
L451.295 143.692
L456.035 183.949
L460.775 141.455
L465.515 163.82
L470.255 175.003
L474.995 170.53
L479.735 221.969
L484.475 213.023
L489.215 235.388
L493.955 230.915
L498.695 199.604
L503.435 179.476
L508.175 172.766
L512.915 206.314
L517.655 210.787
L522.395 199.604
L527.135 215.26
L531.875 221.969
L536.615 204.077
L541.355 204.077
L546.095 208.55
L550.835 192.895
L555.575 210.787
L560.315 226.442
L565.055 219.733
L569.795 215.26
L574.535 217.496
L579.275 215.26
L584.015 206.314
L588.755 213.023
L593.495 226.442
L598.235 199.604
L602.975 217.496
L607.715 217.496
L612.455 208.55
L617.195 215.26
L621.935 221.969
L626.675 210.787
L631.415 228.679
L636.155 201.841
L640.895 235.388
L645.635 235.388" style="fill:none;opacity:0.5;stroke:#ff0000;stroke-linecap:square;"/>
   </g>
   <g id="line2d_82">
    <path clip-path="url(#p410768f2a7)" d="
M413.375 186.185
L418.115 221.969
L422.855 237.625
L427.595 215.26
L432.335 181.712
L437.075 179.476
L441.815 152.638
L446.555 139.219
L451.295 161.584
L456.035 121.327
L460.775 134.746
L465.515 125.8
L470.255 154.874
L474.995 141.455
L479.735 157.111
L484.475 145.928
L489.215 148.165
L493.955 183.949
L498.695 210.787
L503.435 217.496
L508.175 201.841
L512.915 183.949
L517.655 215.26
L522.395 188.422
L527.135 213.023
L531.875 210.787
L536.615 175.003
L541.355 219.733
L546.095 192.895
L550.835 188.422
L555.575 215.26
L560.315 228.679
L565.055 206.314
L569.795 221.969
L574.535 210.787
L579.275 210.787
L584.015 219.733
L588.755 188.422
L593.495 199.604
L598.235 213.023
L602.975 190.658
L607.715 206.314" style="fill:none;opacity:0.5;stroke:#ff0000;stroke-linecap:square;"/>
   </g>
   <g id="line2d_83">
    <path clip-path="url(#p410768f2a7)" d="
M413.375 219.733
L418.115 230.915
L422.855 233.152
L427.595 213.023
L432.335 228.679
L437.075 157.111
L441.815 210.787
L446.555 141.455
L451.295 166.057
L456.035 125.8
L460.775 125.8
L465.515 143.692
L470.255 161.584
L474.995 154.874
L479.735 175.003
L484.475 172.766
L489.215 170.53
L493.955 219.733
L498.695 159.347
L503.435 204.077
L508.175 201.841
L512.915 183.949
L517.655 199.604
L522.395 197.368
L527.135 183.949
L531.875 199.604
L536.615 219.733
L541.355 210.787
L546.095 213.023
L550.835 213.023
L555.575 208.55
L560.315 213.023
L565.055 195.131
L569.795 217.496
L574.535 221.969
L579.275 210.787
L584.015 208.55
L588.755 204.077
L593.495 204.077
L598.235 201.841
L602.975 183.949
L607.715 195.131
L612.455 199.604
L617.195 197.368
L621.935 197.368
L626.675 201.841
L631.415 192.895
L636.155 204.077
L640.895 221.969
L645.635 208.55
L650.375 170.53
L655.115 224.206
L659.855 213.023
L664.595 224.206
L669.335 208.55
L674.075 217.496
L678.815 224.206
L683.555 215.26
L688.295 192.895" style="fill:none;opacity:0.5;stroke:#ff0000;stroke-linecap:square;"/>
   </g>
   <g id="line2d_84"/>
   <g id="line2d_85"/>
   <g id="line2d_86"/>
   <g id="line2d_87"/>
   <g id="line2d_88"/>
   <g id="line2d_89"/>
   <g id="line2d_90"/>
   <g id="line2d_91"/>
   <g id="line2d_92"/>
   <g id="line2d_93">
    <path clip-path="url(#p410768f2a7)" d="
M413.375 233.083
L688.295 233.083" style="fill:none;stroke:#ff0000;stroke-dasharray:6.000000,6.000000;stroke-dashoffset:0.0;stroke-width:2;"/>
   </g>
   <g id="line2d_94">
    <path clip-path="url(#p410768f2a7)" d="
M413.375 207.407
L415.208 206.906
L417.041 206.284
L418.874 205.498
L420.707 204.494
L422.539 203.201
L424.372 201.543
L426.205 199.444
L428.038 196.845
L429.871 193.715
L431.703 190.069
L433.536 185.969
L437.202 176.894
L440.867 167.726
L442.7 163.513
L444.533 159.712
L446.366 156.387
L448.199 153.558
L450.031 151.209
L451.864 149.313
L453.697 147.85
L455.53 146.825
L457.363 146.268
L459.195 146.226
L461.028 146.74
L462.861 147.829
L464.694 149.474
L466.527 151.618
L468.359 154.175
L470.192 157.043
L473.858 163.322
L481.189 176.129
L484.855 182.083
L488.52 187.433
L490.353 189.746
L492.186 191.73
L494.019 193.331
L495.851 194.525
L497.684 195.33
L499.517 195.8
L501.35 196.024
L508.681 196.45
L510.514 196.804
L512.347 197.307
L516.012 198.66
L525.176 202.5
L528.842 203.795
L532.507 204.775
L536.173 205.368
L539.839 205.637
L543.504 205.82
L545.337 206.004
L547.17 206.324
L549.003 206.825
L550.835 207.522
L552.668 208.397
L559.999 212.342
L561.832 213.084
L563.665 213.654
L565.498 214.053
L567.331 214.295
L569.163 214.387
L570.996 214.331
L572.829 214.123
L574.662 213.755
L576.495 213.229
L580.16 211.776
L589.324 207.537
L592.99 206.167
L596.655 205.03
L600.321 204.191
L602.154 203.932
L603.987 203.805
L605.819 203.818
L607.652 203.969
L611.318 204.616
L616.816 206.042
L624.147 207.874
L627.813 208.876
L631.479 210.233
L638.81 213.386
L640.643 213.825
L642.475 213.97
L644.308 213.805
L646.141 213.374
L649.807 212.183
L651.639 211.742
L653.472 211.601
L655.305 211.825
L657.138 212.385
L664.469 215.417
L666.302 215.868
L668.135 216.159
L669.967 216.315
L671.8 216.346
L673.633 216.241
L675.466 215.964
L677.299 215.475
L679.131 214.747
L680.964 213.776
L682.797 212.587
L686.463 209.757
L688.295 208.237
L688.295 208.237" style="fill:none;stroke:#ff0000;stroke-linecap:square;stroke-width:2;"/>
   </g>
   <g id="line2d_95">
    <path clip-path="url(#p410768f2a7)" d="
M413.375 208.55
L418.115 159.347
L422.855 159.347
L427.595 141.455
L432.335 177.239
L437.075 101.198
L441.815 81.0697
L446.555 74.3602
L451.295 145.928
L456.035 172.766
L460.775 123.563
L465.515 143.692
L470.255 123.563
L474.995 132.509
L479.735 141.455
L484.475 181.712
L489.215 152.638
L493.955 170.53
L498.695 195.131
L503.435 181.712
L508.175 195.131
L512.915 181.712
L517.655 208.55
L522.395 181.712
L527.135 210.787
L531.875 215.26
L536.615 224.206
L541.355 235.388
L546.095 237.625
L550.835 233.152
L555.575 226.442
L560.315 226.442
L565.055 226.442
L569.795 219.733
L574.535 224.206
L579.275 224.206
L584.015 228.679
L588.755 230.915
L593.495 204.077
L598.235 224.206
L602.975 226.442
L607.715 233.152
L612.455 208.55
L617.195 228.679
L621.935 228.679
L626.675 230.915
L631.415 215.26
L636.155 237.625
L640.895 237.625
L645.635 237.625" style="fill:none;opacity:0.5;stroke:#008000;stroke-linecap:square;"/>
   </g>
   <g id="line2d_96">
    <path clip-path="url(#p410768f2a7)" d="
M413.375 201.841
L418.115 208.55
L422.855 217.496
L427.595 183.949
L432.335 139.219
L437.075 186.185
L441.815 143.692
L446.555 87.7792
L451.295 98.9617
L456.035 130.273
L460.775 114.617
L465.515 119.09
L470.255 125.8
L474.995 139.219
L479.735 110.144
L484.475 168.293
L489.215 112.381
L493.955 204.077
L498.695 206.314
L503.435 204.077
L508.175 179.476
L512.915 219.733
L517.655 215.26
L522.395 230.915
L527.135 226.442
L531.875 230.915
L536.615 233.152
L541.355 221.969
L546.095 235.388
L550.835 233.152
L555.575 233.152
L560.315 219.733
L565.055 230.915
L569.795 228.679
L574.535 226.442
L579.275 230.915
L584.015 233.152
L588.755 237.625
L593.495 221.969
L598.235 219.733
L602.975 224.206
L607.715 215.26" style="fill:none;opacity:0.5;stroke:#008000;stroke-linecap:square;"/>
   </g>
   <g id="line2d_97">
    <path clip-path="url(#p410768f2a7)" d="
M413.375 183.949
L418.115 215.26
L422.855 228.679
L427.595 188.422
L432.335 139.219
L437.075 143.692
L441.815 145.928
L446.555 103.435
L451.295 72.1237
L456.035 96.7252
L460.775 101.198
L465.515 157.111
L470.255 201.841
L474.995 186.185
L479.735 204.077
L484.475 188.422
L489.215 181.712
L493.955 201.841
L498.695 114.617
L503.435 157.111
L508.175 224.206
L512.915 224.206
L517.655 192.895
L522.395 221.969
L527.135 226.442
L531.875 224.206
L536.615 224.206
L541.355 226.442
L546.095 237.625
L550.835 235.388
L555.575 228.679
L560.315 230.915
L565.055 226.442
L569.795 230.915
L574.535 224.206
L579.275 235.388
L584.015 233.152
L588.755 237.625
L593.495 230.915
L598.235 230.915
L602.975 233.152
L607.715 235.388
L612.455 235.388
L617.195 230.915
L621.935 228.679
L626.675 235.388
L631.415 233.152
L636.155 230.915
L640.895 237.625
L645.635 221.969
L650.375 237.625
L655.115 233.152
L659.855 230.915
L664.595 221.969
L669.335 230.915
L674.075 237.625
L678.815 228.679
L683.555 228.679
L688.295 230.915" style="fill:none;opacity:0.5;stroke:#008000;stroke-linecap:square;"/>
   </g>
   <g id="line2d_98"/>
   <g id="line2d_99"/>
   <g id="line2d_100"/>
   <g id="line2d_101"/>
   <g id="line2d_102"/>
   <g id="line2d_103"/>
   <g id="line2d_104"/>
   <g id="line2d_105"/>
   <g id="line2d_106"/>
   <g id="line2d_107">
    <path clip-path="url(#p410768f2a7)" d="
M413.375 234.462
L688.295 234.462" style="fill:none;stroke:#008000;stroke-dasharray:6.000000,6.000000;stroke-dashoffset:0.0;stroke-width:2;"/>
   </g>
   <g id="line2d_108">
    <path clip-path="url(#p410768f2a7)" d="
M413.375 194.452
L415.208 193.273
L417.041 191.681
L418.874 189.578
L420.707 186.879
L422.539 183.522
L424.372 179.487
L426.205 174.802
L428.038 169.544
L431.703 157.785
L437.202 139.15
L439.035 133.304
L440.867 127.958
L442.7 123.329
L444.533 119.619
L446.366 116.98
L448.199 115.486
L450.031 115.114
L451.864 115.754
L453.697 117.237
L455.53 119.37
L457.363 121.974
L459.195 124.904
L462.861 131.33
L468.359 141.278
L472.025 147.407
L475.691 152.857
L479.356 157.708
L483.022 162.148
L497.684 179.319
L501.35 184.332
L505.015 189.937
L510.514 198.619
L514.179 203.787
L517.845 208.273
L521.511 212.334
L527.009 218.047
L530.675 221.527
L534.34 224.612
L538.006 227.261
L539.839 228.401
L541.671 229.39
L543.504 230.196
L545.337 230.785
L547.17 231.133
L549.003 231.233
L550.835 231.097
L552.668 230.763
L556.334 229.725
L559.999 228.603
L563.665 227.761
L565.498 227.503
L567.331 227.366
L569.163 227.35
L572.829 227.667
L578.327 228.681
L581.993 229.179
L583.826 229.214
L585.659 229.067
L587.491 228.746
L591.157 227.763
L594.823 226.783
L596.655 226.443
L598.488 226.236
L602.154 226.167
L607.652 226.499
L613.151 227.086
L616.816 227.72
L633.311 231.208
L638.81 232.52
L642.475 233.104
L646.141 233.312
L649.807 233.116
L653.472 232.482
L657.138 231.475
L660.803 230.47
L662.636 230.136
L664.469 229.975
L666.302 229.987
L669.967 230.372
L673.633 230.809
L677.299 230.926
L680.964 230.725
L688.295 230.232
L688.295 230.232" style="fill:none;stroke:#008000;stroke-linecap:square;stroke-width:2;"/>
   </g>
   <g id="line2d_109">
    <path clip-path="url(#p410768f2a7)" d="
M413.375 233.152
L418.115 195.131
L422.855 233.152
L427.595 213.023
L432.335 233.152
L437.075 195.131
L441.815 166.057
L446.555 183.949
L451.295 159.347
L456.035 201.841
L460.775 235.388
L465.515 237.625
L470.255 228.679
L474.995 230.915
L479.735 215.26
L484.475 112.381
L489.215 215.26
L493.955 237.625
L498.695 190.658
L503.435 233.152
L508.175 237.625
L512.915 237.625
L517.655 237.625
L522.395 230.915
L527.135 237.625
L531.875 233.152
L536.615 226.442
L541.355 233.152
L546.095 226.442
L550.835 219.733
L555.575 237.625
L560.315 226.442
L565.055 228.679
L569.795 224.206
L574.535 237.625
L579.275 235.388
L584.015 230.915
L588.755 235.388
L593.495 237.625
L598.235 233.152
L602.975 233.152
L607.715 228.679
L612.455 221.969
L617.195 208.55
L621.935 230.915
L626.675 161.584
L631.415 217.496
L636.155 192.895
L640.895 237.625
L645.635 226.442" style="fill:none;opacity:0.5;stroke:#0000ff;stroke-linecap:square;"/>
   </g>
   <g id="line2d_110">
    <path clip-path="url(#p410768f2a7)" d="
M413.375 237.625
L418.115 204.077
L422.855 237.625
L427.595 143.692
L432.335 183.949
L437.075 221.969
L441.815 175.003
L446.555 235.388
L451.295 168.293
L456.035 121.327
L460.775 217.496
L465.515 235.388
L470.255 181.712
L474.995 237.625
L479.735 237.625
L484.475 186.185
L489.215 179.476
L493.955 219.733
L498.695 204.077
L503.435 235.388
L508.175 237.625
L512.915 237.625
L517.655 228.679
L522.395 235.388
L527.135 230.915
L531.875 237.625
L536.615 201.841
L541.355 228.679
L546.095 237.625
L550.835 217.496
L555.575 233.152
L560.315 230.915
L565.055 233.152
L569.795 226.442
L574.535 233.152
L579.275 217.496
L584.015 228.679
L588.755 235.388
L593.495 230.915
L598.235 237.625
L602.975 224.206
L607.715 221.969" style="fill:none;opacity:0.5;stroke:#0000ff;stroke-linecap:square;"/>
   </g>
   <g id="line2d_111">
    <path clip-path="url(#p410768f2a7)" d="
M413.375 233.152
L418.115 237.625
L422.855 197.368
L427.595 179.476
L432.335 237.625
L437.075 228.679
L441.815 219.733
L446.555 226.442
L451.295 228.679
L456.035 116.854
L460.775 141.455
L465.515 226.442
L470.255 186.185
L474.995 213.023
L479.735 230.915
L484.475 215.26
L489.215 195.131
L493.955 206.314
L498.695 148.165
L503.435 208.55
L508.175 230.915
L512.915 235.388
L517.655 230.915
L522.395 219.733
L527.135 228.679
L531.875 237.625
L536.615 237.625
L541.355 237.625
L546.095 237.625
L550.835 237.625
L555.575 237.625
L560.315 235.388
L565.055 237.625
L569.795 235.388
L574.535 233.152
L579.275 228.679
L584.015 228.679
L588.755 213.023
L593.495 224.206
L598.235 235.388
L602.975 237.625
L607.715 230.915
L612.455 228.679
L617.195 233.152
L621.935 226.442
L626.675 233.152
L631.415 230.915
L636.155 237.625
L640.895 233.152
L645.635 206.314
L650.375 228.679
L655.115 237.625
L659.855 237.625
L664.595 235.388
L669.335 233.152
L674.075 215.26
L678.815 219.733
L683.555 233.152
L688.295 221.969" style="fill:none;opacity:0.5;stroke:#0000ff;stroke-linecap:square;"/>
   </g>
   <g id="line2d_112"/>
   <g id="line2d_113"/>
   <g id="line2d_114"/>
   <g id="line2d_115"/>
   <g id="line2d_116"/>
   <g id="line2d_117"/>
   <g id="line2d_118"/>
   <g id="line2d_119"/>
   <g id="line2d_120"/>
   <g id="line2d_121">
    <path clip-path="url(#p410768f2a7)" d="
M413.375 225.987
L688.295 225.987" style="fill:none;stroke:#0000ff;stroke-dasharray:6.000000,6.000000;stroke-dashoffset:0.0;stroke-width:2;"/>
   </g>
   <g id="line2d_122">
    <path clip-path="url(#p410768f2a7)" d="
M413.375 220.622
L417.041 217.038
L422.539 211.36
L424.372 209.723
L426.205 208.356
L428.038 207.294
L429.871 206.511
L435.369 204.774
L437.202 203.944
L439.035 202.803
L440.867 201.3
L442.7 199.438
L444.533 197.273
L448.199 192.613
L450.031 190.578
L451.864 189.123
L453.697 188.523
L455.53 188.966
L457.363 190.499
L459.195 193.005
L461.028 196.221
L464.694 203.348
L466.527 206.548
L468.359 209.145
L470.192 210.977
L472.025 211.973
L473.858 212.129
L475.691 211.509
L477.523 210.24
L479.356 208.518
L483.022 204.723
L484.855 203.173
L486.687 202.13
L488.52 201.701
L490.353 201.915
L492.186 202.74
L494.019 204.124
L495.851 206.011
L497.684 208.351
L499.517 211.083
L503.183 217.314
L506.848 223.509
L508.681 226.149
L510.514 228.306
L512.347 229.926
L514.179 231.025
L516.012 231.674
L517.845 231.978
L519.678 232.046
L523.343 231.83
L530.675 231.04
L536.173 230.512
L539.839 230.423
L543.504 230.559
L550.835 231.121
L558.167 231.677
L561.832 231.734
L565.498 231.586
L570.996 231.079
L581.993 229.806
L585.659 229.808
L589.324 230.174
L594.823 230.913
L596.655 231.023
L598.488 230.996
L600.321 230.807
L602.154 230.449
L603.987 229.928
L605.819 229.26
L609.485 227.552
L613.151 225.433
L616.816 222.986
L620.482 220.463
L622.315 219.349
L624.147 218.461
L625.98 217.884
L627.813 217.673
L629.646 217.838
L631.479 218.338
L633.311 219.095
L642.475 223.604
L646.141 225.183
L647.974 226.068
L649.807 227.081
L657.138 231.661
L658.971 232.364
L660.803 232.648
L662.636 232.471
L664.469 231.861
L666.302 230.902
L673.633 226.189
L675.466 225.391
L677.299 224.867
L679.131 224.6
L680.964 224.535
L684.63 224.735
L688.295 224.976
L688.295 224.976" style="fill:none;stroke:#0000ff;stroke-linecap:square;stroke-width:2;"/>
   </g>
   <g id="line2d_123">
    <path clip-path="url(#p410768f2a7)" d="
M413.375 192.895
L418.115 163.82
L422.855 130.273
L427.595 130.273
L432.335 175.003
L437.075 125.8
L441.815 81.0697
L446.555 90.0157
L451.295 132.509
L456.035 166.057
L460.775 130.273
L465.515 134.746
L470.255 125.8
L474.995 130.273
L479.735 116.854
L484.475 143.692
L489.215 159.347
L493.955 179.476
L498.695 175.003
L503.435 195.131
L508.175 183.949
L512.915 190.658
L517.655 204.077
L522.395 154.874
L527.135 221.969
L531.875 221.969
L536.615 224.206
L541.355 233.152
L546.095 226.442
L550.835 228.679
L555.575 228.679
L560.315 230.915
L565.055 224.206
L569.795 215.26
L574.535 213.023
L579.275 233.152
L584.015 213.023
L588.755 226.442
L593.495 208.55
L598.235 230.915
L602.975 235.388
L607.715 228.679
L612.455 215.26
L617.195 233.152
L621.935 228.679
L626.675 226.442
L631.415 213.023
L636.155 228.679
L640.895 237.625
L645.635 235.388" style="fill:none;opacity:0.5;stroke:#000000;stroke-linecap:square;"/>
   </g>
   <g id="line2d_124">
    <path clip-path="url(#p410768f2a7)" d="
M413.375 213.023
L418.115 206.314
L422.855 219.733
L427.595 170.53
L432.335 121.327
L437.075 181.712
L441.815 134.746
L446.555 128.036
L451.295 114.617
L456.035 125.8
L460.775 132.509
L465.515 107.908
L470.255 123.563
L474.995 130.273
L479.735 159.347
L484.475 139.219
L489.215 105.671
L493.955 179.476
L498.695 204.077
L503.435 199.604
L508.175 175.003
L512.915 224.206
L517.655 217.496
L522.395 213.023
L527.135 219.733
L531.875 224.206
L536.615 237.625
L541.355 224.206
L546.095 233.152
L550.835 224.206
L555.575 213.023
L560.315 224.206
L565.055 230.915
L569.795 221.969
L574.535 201.841
L579.275 224.206
L584.015 228.679
L588.755 226.442
L593.495 224.206
L598.235 226.442
L602.975 215.26
L607.715 219.733" style="fill:none;opacity:0.5;stroke:#000000;stroke-linecap:square;"/>
   </g>
   <g id="line2d_125">
    <path clip-path="url(#p410768f2a7)" d="
M413.375 183.949
L418.115 221.969
L422.855 226.442
L427.595 195.131
L432.335 125.8
L437.075 130.273
L441.815 157.111
L446.555 125.8
L451.295 114.617
L456.035 114.617
L460.775 94.4887
L465.515 145.928
L470.255 192.895
L474.995 181.712
L479.735 197.368
L484.475 181.712
L489.215 148.165
L493.955 197.368
L498.695 85.5427
L503.435 175.003
L508.175 219.733
L512.915 210.787
L517.655 208.55
L522.395 204.077
L527.135 219.733
L531.875 228.679
L536.615 224.206
L541.355 208.55
L546.095 233.152
L550.835 226.442
L555.575 233.152
L560.315 226.442
L565.055 233.152
L569.795 228.679
L574.535 228.679
L579.275 228.679
L584.015 237.625
L588.755 230.915
L593.495 233.152
L598.235 228.679
L602.975 228.679
L607.715 224.206
L612.455 228.679
L617.195 230.915
L621.935 217.496
L626.675 233.152
L631.415 235.388
L636.155 224.206
L640.895 237.625
L645.635 224.206
L650.375 221.969
L655.115 233.152
L659.855 228.679
L664.595 217.496
L669.335 228.679
L674.075 224.206
L678.815 213.023
L683.555 233.152
L688.295 224.206" style="fill:none;opacity:0.5;stroke:#000000;stroke-linecap:square;"/>
   </g>
   <g id="line2d_126"/>
   <g id="line2d_127"/>
   <g id="line2d_128"/>
   <g id="line2d_129"/>
   <g id="line2d_130"/>
   <g id="line2d_131"/>
   <g id="line2d_132"/>
   <g id="line2d_133"/>
   <g id="line2d_134"/>
   <g id="line2d_135">
    <path clip-path="url(#p410768f2a7)" d="
M413.375 234.368
L688.295 234.368" style="fill:none;stroke:#000000;stroke-dasharray:6.000000,6.000000;stroke-dashoffset:0.0;stroke-width:2;"/>
   </g>
   <g id="line2d_136">
    <path clip-path="url(#p410768f2a7)" d="
M413.375 192.382
L415.208 190.782
L417.041 188.708
L418.874 186.089
L420.707 182.876
L422.539 179.067
L424.372 174.707
L428.038 164.802
L433.536 149.39
L435.369 144.684
L437.202 140.357
L439.035 136.472
L440.867 133.092
L442.7 130.27
L444.533 128.051
L446.366 126.454
L448.199 125.462
L450.031 125.023
L451.864 125.057
L453.697 125.476
L455.53 126.207
L457.363 127.207
L459.195 128.463
L461.028 129.984
L462.861 131.779
L464.694 133.839
L468.359 138.541
L472.025 143.39
L473.858 145.607
L475.691 147.586
L477.523 149.306
L479.356 150.794
L484.855 154.777
L486.687 156.331
L488.52 158.159
L490.353 160.307
L492.186 162.781
L494.019 165.561
L495.851 168.614
L499.517 175.377
L506.848 189.841
L508.681 193.112
L510.514 196.054
L512.347 198.621
L514.179 200.828
L516.012 202.745
L521.511 207.96
L523.343 209.887
L527.009 214.18
L530.675 218.523
L532.507 220.442
L534.34 222.086
L536.173 223.424
L538.006 224.464
L539.839 225.242
L541.671 225.805
L543.504 226.198
L547.17 226.622
L550.835 226.725
L554.501 226.625
L558.167 226.336
L561.832 225.769
L565.498 224.897
L569.163 223.973
L570.996 223.639
L572.829 223.465
L574.662 223.476
L576.495 223.665
L580.16 224.399
L583.826 225.193
L587.491 225.697
L591.157 225.888
L598.488 225.885
L611.318 225.686
L614.983 225.966
L629.646 227.483
L633.311 228.24
L638.81 229.555
L640.643 229.873
L642.475 230.067
L644.308 230.12
L646.141 230.032
L649.807 229.49
L653.472 228.6
L658.971 226.89
L664.469 225.14
L668.135 224.224
L671.8 223.61
L675.466 223.372
L679.131 223.573
L682.797 224.13
L688.295 225.098
L688.295 225.098" style="fill:none;stroke:#000000;stroke-linecap:square;stroke-width:2;"/>
   </g>
   <g id="patch_8">
    <path d="
M413.375 13.9747
L697.775 13.9747" style="fill:none;stroke:#000000;stroke-linecap:square;stroke-linejoin:miter;"/>
   </g>
   <g id="patch_9">
    <path d="
M697.775 237.625
L697.775 13.9747" style="fill:none;stroke:#000000;stroke-linecap:square;stroke-linejoin:miter;"/>
   </g>
   <g id="patch_10">
    <path d="
M413.375 237.625
L697.775 237.625" style="fill:none;stroke:#000000;stroke-linecap:square;stroke-linejoin:miter;"/>
   </g>
   <g id="patch_11">
    <path d="
M413.375 237.625
L413.375 13.9747" style="fill:none;stroke:#000000;stroke-linecap:square;stroke-linejoin:miter;"/>
   </g>
   <g id="matplotlib.axis_3">
    <g id="xtick_8">
     <g id="line2d_137">
      <g>
       <use style="stroke:#000000;stroke-width:0.5;" x="413.3753125" xlink:href="#m93b0483c22" y="237.6246875"/>
      </g>
     </g>
     <g id="line2d_138">
      <g>
       <use style="stroke:#000000;stroke-width:0.5;" x="413.3753125" xlink:href="#m741efc42ff" y="13.9746875"/>
      </g>
     </g>
     <g id="text_15">
      <!-- 0 -->
      <g transform="translate(409.84796875 252.2625)scale(0.14 -0.14)">
       <use xlink:href="#BitstreamVeraSans-Roman-30"/>
      </g>
     </g>
    </g>
    <g id="xtick_9">
     <g id="line2d_139">
      <g>
       <use style="stroke:#000000;stroke-width:0.5;" x="460.7753125" xlink:href="#m93b0483c22" y="237.6246875"/>
      </g>
     </g>
     <g id="line2d_140">
      <g>
       <use style="stroke:#000000;stroke-width:0.5;" x="460.7753125" xlink:href="#m741efc42ff" y="13.9746875"/>
      </g>
     </g>
     <g id="text_16">
      <!-- 10 -->
      <g transform="translate(453.1015625 252.2625)scale(0.14 -0.14)">
       <use xlink:href="#BitstreamVeraSans-Roman-31"/>
       <use x="63.623046875" xlink:href="#BitstreamVeraSans-Roman-30"/>
      </g>
     </g>
    </g>
    <g id="xtick_10">
     <g id="line2d_141">
      <g>
       <use style="stroke:#000000;stroke-width:0.5;" x="508.1753125" xlink:href="#m93b0483c22" y="237.6246875"/>
      </g>
     </g>
     <g id="line2d_142">
      <g>
       <use style="stroke:#000000;stroke-width:0.5;" x="508.1753125" xlink:href="#m741efc42ff" y="13.9746875"/>
      </g>
     </g>
     <g id="text_17">
      <!-- 20 -->
      <g transform="translate(500.245625 252.2625)scale(0.14 -0.14)">
       <use xlink:href="#BitstreamVeraSans-Roman-32"/>
       <use x="63.623046875" xlink:href="#BitstreamVeraSans-Roman-30"/>
      </g>
     </g>
    </g>
    <g id="xtick_11">
     <g id="line2d_143">
      <g>
       <use style="stroke:#000000;stroke-width:0.5;" x="555.5753125" xlink:href="#m93b0483c22" y="237.6246875"/>
      </g>
     </g>
     <g id="line2d_144">
      <g>
       <use style="stroke:#000000;stroke-width:0.5;" x="555.5753125" xlink:href="#m741efc42ff" y="13.9746875"/>
      </g>
     </g>
     <g id="text_18">
      <!-- 30 -->
      <g transform="translate(547.66640625 252.2625)scale(0.14 -0.14)">
       <use xlink:href="#BitstreamVeraSans-Roman-33"/>
       <use x="63.623046875" xlink:href="#BitstreamVeraSans-Roman-30"/>
      </g>
     </g>
    </g>
    <g id="xtick_12">
     <g id="line2d_145">
      <g>
       <use style="stroke:#000000;stroke-width:0.5;" x="602.9753125" xlink:href="#m93b0483c22" y="237.6246875"/>
      </g>
     </g>
     <g id="line2d_146">
      <g>
       <use style="stroke:#000000;stroke-width:0.5;" x="602.9753125" xlink:href="#m741efc42ff" y="13.9746875"/>
      </g>
     </g>
     <g id="text_19">
      <!-- 40 -->
      <g transform="translate(594.875 252.2625)scale(0.14 -0.14)">
       <use xlink:href="#BitstreamVeraSans-Roman-34"/>
       <use x="63.623046875" xlink:href="#BitstreamVeraSans-Roman-30"/>
      </g>
     </g>
    </g>
    <g id="xtick_13">
     <g id="line2d_147">
      <g>
       <use style="stroke:#000000;stroke-width:0.5;" x="650.3753125" xlink:href="#m93b0483c22" y="237.6246875"/>
      </g>
     </g>
     <g id="line2d_148">
      <g>
       <use style="stroke:#000000;stroke-width:0.5;" x="650.3753125" xlink:href="#m741efc42ff" y="13.9746875"/>
      </g>
     </g>
     <g id="text_20">
      <!-- 50 -->
      <g transform="translate(642.47296875 252.2625)scale(0.14 -0.14)">
       <use xlink:href="#BitstreamVeraSans-Roman-35"/>
       <use x="63.623046875" xlink:href="#BitstreamVeraSans-Roman-30"/>
      </g>
     </g>
    </g>
    <g id="xtick_14">
     <g id="line2d_149">
      <g>
       <use style="stroke:#000000;stroke-width:0.5;" x="697.7753125" xlink:href="#m93b0483c22" y="237.6246875"/>
      </g>
     </g>
     <g id="line2d_150">
      <g>
       <use style="stroke:#000000;stroke-width:0.5;" x="697.7753125" xlink:href="#m741efc42ff" y="13.9746875"/>
      </g>
     </g>
     <g id="text_21">
      <!-- 60 -->
      <g transform="translate(689.8215625 252.2625)scale(0.14 -0.14)">
       <use xlink:href="#BitstreamVeraSans-Roman-36"/>
       <use x="63.623046875" xlink:href="#BitstreamVeraSans-Roman-30"/>
      </g>
     </g>
    </g>
    <g id="text_22">
     <!-- Latency (s) -->
     <g transform="translate(517.17375 270.811875)scale(0.14 -0.14)">
      <use xlink:href="#BitstreamVeraSans-Roman-4c"/>
      <use x="55.712890625" xlink:href="#BitstreamVeraSans-Roman-61"/>
      <use x="116.9921875" xlink:href="#BitstreamVeraSans-Roman-74"/>
      <use x="156.201171875" xlink:href="#BitstreamVeraSans-Roman-65"/>
      <use x="217.724609375" xlink:href="#BitstreamVeraSans-Roman-6e"/>
      <use x="281.103515625" xlink:href="#BitstreamVeraSans-Roman-63"/>
      <use x="336.083984375" xlink:href="#BitstreamVeraSans-Roman-79"/>
      <use x="395.263671875" xlink:href="#BitstreamVeraSans-Roman-20"/>
      <use x="427.05078125" xlink:href="#BitstreamVeraSans-Roman-28"/>
      <use x="466.064453125" xlink:href="#BitstreamVeraSans-Roman-73"/>
      <use x="518.1640625" xlink:href="#BitstreamVeraSans-Roman-29"/>
     </g>
    </g>
   </g>
   <g id="matplotlib.axis_4">
    <g id="ytick_6">
     <g id="line2d_151">
      <g>
       <use style="stroke:#000000;stroke-width:0.5;" x="413.3753125" xlink:href="#m728421d6d4" y="237.6246875"/>
      </g>
     </g>
     <g id="line2d_152">
      <g>
       <use style="stroke:#000000;stroke-width:0.5;" x="697.7753125" xlink:href="#mcb0005524f" y="237.6246875"/>
      </g>
     </g>
     <g id="text_23">
      <!-- 0 -->
      <g transform="translate(402.320625 241.4878125)scale(0.14 -0.14)">
       <use xlink:href="#BitstreamVeraSans-Roman-30"/>
      </g>
     </g>
    </g>
    <g id="ytick_7">
     <g id="line2d_153">
      <g>
       <use style="stroke:#000000;stroke-width:0.5;" x="413.3753125" xlink:href="#m728421d6d4" y="181.7121875"/>
      </g>
     </g>
     <g id="line2d_154">
      <g>
       <use style="stroke:#000000;stroke-width:0.5;" x="697.7753125" xlink:href="#mcb0005524f" y="181.7121875"/>
      </g>
     </g>
     <g id="text_24">
      <!-- 0.25 -->
      <g transform="translate(380.349375 185.5753125)scale(0.14 -0.14)">
       <use xlink:href="#BitstreamVeraSans-Roman-30"/>
       <use x="63.623046875" xlink:href="#BitstreamVeraSans-Roman-2e"/>
       <use x="95.41015625" xlink:href="#BitstreamVeraSans-Roman-32"/>
       <use x="159.033203125" xlink:href="#BitstreamVeraSans-Roman-35"/>
      </g>
     </g>
    </g>
    <g id="ytick_8">
     <g id="line2d_155">
      <g>
       <use style="stroke:#000000;stroke-width:0.5;" x="413.3753125" xlink:href="#m728421d6d4" y="125.7996875"/>
      </g>
     </g>
     <g id="line2d_156">
      <g>
       <use style="stroke:#000000;stroke-width:0.5;" x="697.7753125" xlink:href="#mcb0005524f" y="125.7996875"/>
      </g>
     </g>
     <g id="text_25">
      <!-- 0.5 -->
      <g transform="translate(389.256875 129.6628125)scale(0.14 -0.14)">
       <use xlink:href="#BitstreamVeraSans-Roman-30"/>
       <use x="63.623046875" xlink:href="#BitstreamVeraSans-Roman-2e"/>
       <use x="95.41015625" xlink:href="#BitstreamVeraSans-Roman-35"/>
      </g>
     </g>
    </g>
    <g id="ytick_9">
     <g id="line2d_157">
      <g>
       <use style="stroke:#000000;stroke-width:0.5;" x="413.3753125" xlink:href="#m728421d6d4" y="69.8871875"/>
      </g>
     </g>
     <g id="line2d_158">
      <g>
       <use style="stroke:#000000;stroke-width:0.5;" x="697.7753125" xlink:href="#mcb0005524f" y="69.8871875"/>
      </g>
     </g>
     <g id="text_26">
      <!-- 0.75 -->
      <g transform="translate(380.349375 73.7503125)scale(0.14 -0.14)">
       <use xlink:href="#BitstreamVeraSans-Roman-30"/>
       <use x="63.623046875" xlink:href="#BitstreamVeraSans-Roman-2e"/>
       <use x="95.41015625" xlink:href="#BitstreamVeraSans-Roman-37"/>
       <use x="159.033203125" xlink:href="#BitstreamVeraSans-Roman-35"/>
      </g>
     </g>
    </g>
    <g id="ytick_10">
     <g id="line2d_159">
      <g>
       <use style="stroke:#000000;stroke-width:0.5;" x="413.3753125" xlink:href="#m728421d6d4" y="13.9746875"/>
      </g>
     </g>
     <g id="line2d_160">
      <g>
       <use style="stroke:#000000;stroke-width:0.5;" x="697.7753125" xlink:href="#mcb0005524f" y="13.9746875"/>
      </g>
     </g>
     <g id="text_27">
      <!-- 1 -->
      <g transform="translate(403.2984375 17.8378125)scale(0.14 -0.14)">
       <use xlink:href="#BitstreamVeraSans-Roman-31"/>
      </g>
     </g>
    </g>
    <g id="text_28">
     <!-- P(early) -->
     <defs>
      <path d="
M9.42188 75.9844
L18.4062 75.9844
L18.4062 0
L9.42188 0
z
" id="BitstreamVeraSans-Roman-6c"/>
     </defs>
     <g transform="translate(372.4378125 151.7565625)rotate(-90.0)scale(0.14 -0.14)">
      <use xlink:href="#BitstreamVeraSans-Roman-50"/>
      <use x="60.302734375" xlink:href="#BitstreamVeraSans-Roman-28"/>
      <use x="99.31640625" xlink:href="#BitstreamVeraSans-Roman-65"/>
      <use x="160.83984375" xlink:href="#BitstreamVeraSans-Roman-61"/>
      <use x="222.119140625" xlink:href="#BitstreamVeraSans-Roman-72"/>
      <use x="263.232421875" xlink:href="#BitstreamVeraSans-Roman-6c"/>
      <use x="291.015625" xlink:href="#BitstreamVeraSans-Roman-79"/>
      <use x="350.1953125" xlink:href="#BitstreamVeraSans-Roman-29"/>
     </g>
    </g>
   </g>
   <g id="legend_1">
    <g id="patch_12">
     <path d="
M534.03 80.6872
L692.775 80.6872
L692.775 18.9747
L534.03 18.9747
z
" style="fill:#ffffff;stroke:#000000;stroke-linejoin:miter;"/>
    </g>
    <g id="line2d_161">
     <path d="
M541.03 27.0731
L555.03 27.0731" style="fill:none;stroke:#ff0000;stroke-linecap:square;stroke-width:2;"/>
    </g>
    <g id="line2d_162"/>
    <g id="text_29">
     <!-- VAR(2) -->
     <defs>
      <path d="
M44.3906 34.1875
Q47.5625 33.1094 50.5625 29.5938
Q53.5625 26.0781 56.5938 19.9219
L66.6094 0
L56 0
L46.6875 18.7031
Q43.0625 26.0312 39.6719 28.4219
Q36.2812 30.8125 30.4219 30.8125
L19.6719 30.8125
L19.6719 0
L9.8125 0
L9.8125 72.9062
L32.0781 72.9062
Q44.5781 72.9062 50.7344 67.6719
Q56.8906 62.4531 56.8906 51.9062
Q56.8906 45.0156 53.6875 40.4688
Q50.4844 35.9375 44.3906 34.1875
M19.6719 64.7969
L19.6719 38.9219
L32.0781 38.9219
Q39.2031 38.9219 42.8438 42.2188
Q46.4844 45.5156 46.4844 51.9062
Q46.4844 58.2969 42.8438 61.5469
Q39.2031 64.7969 32.0781 64.7969
z
" id="BitstreamVeraSans-Roman-52"/>
      <path d="
M34.1875 63.1875
L20.7969 26.9062
L47.6094 26.9062
z

M28.6094 72.9062
L39.7969 72.9062
L67.5781 0
L57.3281 0
L50.6875 18.7031
L17.8281 18.7031
L11.1875 0
L0.78125 0
z
" id="BitstreamVeraSans-Roman-41"/>
      <path d="
M28.6094 0
L0.78125 72.9062
L11.0781 72.9062
L34.1875 11.5312
L57.3281 72.9062
L67.5781 72.9062
L39.7969 0
z
" id="BitstreamVeraSans-Roman-56"/>
     </defs>
     <g transform="translate(566.03 30.573125)scale(0.1 -0.1)">
      <use xlink:href="#BitstreamVeraSans-Roman-56"/>
      <use x="62.033203125" xlink:href="#BitstreamVeraSans-Roman-41"/>
      <use x="130.44140625" xlink:href="#BitstreamVeraSans-Roman-52"/>
      <use x="199.923828125" xlink:href="#BitstreamVeraSans-Roman-28"/>
      <use x="238.9375" xlink:href="#BitstreamVeraSans-Roman-32"/>
      <use x="302.560546875" xlink:href="#BitstreamVeraSans-Roman-29"/>
     </g>
    </g>
    <g id="line2d_163">
     <path d="
M541.03 41.7512
L555.03 41.7512" style="fill:none;stroke:#008000;stroke-linecap:square;stroke-width:2;"/>
    </g>
    <g id="line2d_164"/>
    <g id="text_30">
     <!-- SE -->
     <defs>
      <path d="
M9.8125 72.9062
L55.9062 72.9062
L55.9062 64.5938
L19.6719 64.5938
L19.6719 43.0156
L54.3906 43.0156
L54.3906 34.7188
L19.6719 34.7188
L19.6719 8.29688
L56.7812 8.29688
L56.7812 0
L9.8125 0
z
" id="BitstreamVeraSans-Roman-45"/>
      <path d="
M53.5156 70.5156
L53.5156 60.8906
Q47.9062 63.5781 42.9219 64.8906
Q37.9375 66.2188 33.2969 66.2188
Q25.25 66.2188 20.875 63.0938
Q16.5 59.9688 16.5 54.2031
Q16.5 49.3594 19.4062 46.8906
Q22.3125 44.4375 30.4219 42.9219
L36.375 41.7031
Q47.4062 39.5938 52.6562 34.2969
Q57.9062 29 57.9062 20.125
Q57.9062 9.51562 50.7969 4.04688
Q43.7031 -1.42188 29.9844 -1.42188
Q24.8125 -1.42188 18.9688 -0.25
Q13.1406 0.921875 6.89062 3.21875
L6.89062 13.375
Q12.8906 10.0156 18.6562 8.29688
Q24.4219 6.59375 29.9844 6.59375
Q38.4219 6.59375 43.0156 9.90625
Q47.6094 13.2344 47.6094 19.3906
Q47.6094 24.75 44.3125 27.7812
Q41.0156 30.8125 33.5 32.3281
L27.4844 33.5
Q16.4531 35.6875 11.5156 40.375
Q6.59375 45.0625 6.59375 53.4219
Q6.59375 63.0938 13.4062 68.6562
Q20.2188 74.2188 32.1719 74.2188
Q37.3125 74.2188 42.625 73.2812
Q47.9531 72.3594 53.5156 70.5156" id="BitstreamVeraSans-Roman-53"/>
     </defs>
     <g transform="translate(566.03 45.25125)scale(0.1 -0.1)">
      <use xlink:href="#BitstreamVeraSans-Roman-53"/>
      <use x="63.4765625" xlink:href="#BitstreamVeraSans-Roman-45"/>
     </g>
    </g>
    <g id="line2d_165">
     <path d="
M541.03 56.4294
L555.03 56.4294" style="fill:none;stroke:#0000ff;stroke-linecap:square;stroke-width:2;"/>
    </g>
    <g id="line2d_166"/>
    <g id="text_31">
     <!-- PLV -->
     <g transform="translate(566.03 59.929375)scale(0.1 -0.1)">
      <use xlink:href="#BitstreamVeraSans-Roman-50"/>
      <use x="60.302734375" xlink:href="#BitstreamVeraSans-Roman-4c"/>
      <use x="105.015625" xlink:href="#BitstreamVeraSans-Roman-56"/>
     </g>
    </g>
    <g id="line2d_167">
     <path d="
M541.03 71.1075
L555.03 71.1075" style="fill:none;stroke:#000000;stroke-linecap:square;stroke-width:2;"/>
    </g>
    <g id="line2d_168"/>
    <g id="text_32">
     <!-- VAR(1)+VAR(2)+PLV+SE -->
     <defs>
      <path d="
M46 62.7031
L46 35.5
L73.1875 35.5
L73.1875 27.2031
L46 27.2031
L46 0
L37.7969 0
L37.7969 27.2031
L10.5938 27.2031
L10.5938 35.5
L37.7969 35.5
L37.7969 62.7031
z
" id="BitstreamVeraSans-Roman-2b"/>
     </defs>
     <g transform="translate(566.03 74.6075)scale(0.1 -0.1)">
      <use xlink:href="#BitstreamVeraSans-Roman-56"/>
      <use x="62.033203125" xlink:href="#BitstreamVeraSans-Roman-41"/>
      <use x="130.44140625" xlink:href="#BitstreamVeraSans-Roman-52"/>
      <use x="199.923828125" xlink:href="#BitstreamVeraSans-Roman-28"/>
      <use x="238.9375" xlink:href="#BitstreamVeraSans-Roman-31"/>
      <use x="302.560546875" xlink:href="#BitstreamVeraSans-Roman-29"/>
      <use x="341.57421875" xlink:href="#BitstreamVeraSans-Roman-2b"/>
      <use x="425.36328125" xlink:href="#BitstreamVeraSans-Roman-56"/>
      <use x="487.396484375" xlink:href="#BitstreamVeraSans-Roman-41"/>
      <use x="555.8046875" xlink:href="#BitstreamVeraSans-Roman-52"/>
      <use x="625.287109375" xlink:href="#BitstreamVeraSans-Roman-28"/>
      <use x="664.30078125" xlink:href="#BitstreamVeraSans-Roman-32"/>
      <use x="727.923828125" xlink:href="#BitstreamVeraSans-Roman-29"/>
      <use x="766.9375" xlink:href="#BitstreamVeraSans-Roman-2b"/>
      <use x="850.7265625" xlink:href="#BitstreamVeraSans-Roman-50"/>
      <use x="911.029296875" xlink:href="#BitstreamVeraSans-Roman-4c"/>
      <use x="955.7421875" xlink:href="#BitstreamVeraSans-Roman-56"/>
      <use x="1024.15039062" xlink:href="#BitstreamVeraSans-Roman-2b"/>
      <use x="1107.93945312" xlink:href="#BitstreamVeraSans-Roman-53"/>
      <use x="1171.41601562" xlink:href="#BitstreamVeraSans-Roman-45"/>
     </g>
    </g>
   </g>
  </g>
 </g>
 <defs>
  <clipPath id="p20d03b69dc">
   <rect height="223.65" width="284.4" x="58.7753125" y="13.9746875"/>
  </clipPath>
  <clipPath id="p410768f2a7">
   <rect height="223.65" width="284.4" x="413.3753125" y="13.9746875"/>
  </clipPath>
 </defs>
</svg>
